<svg width="74" height="70" viewBox="0 0 74 70" fill="none" xmlns="http://www.w3.org/2000/svg">
<path d="M0.722256 69.0105C0.74263 68.9065 1.00672 68.7654 1.52416 68.5819C3.32146 67.9445 4.89819 66.7893 6.43737 64.9823C8.14175 62.9813 9.35501 60.7467 10.9617 56.6494C12.5851 52.5095 15.414 45.3279 15.8392 44.2673C16.056 43.7264 16.3763 42.9218 16.5509 42.4793C16.7255 42.0367 17.0194 41.2925 17.2038 40.8254C17.3883 40.3582 17.9263 38.9904 18.3993 37.7857C18.8723 36.581 19.477 35.0523 19.7431 34.3885C20.726 31.9362 23.2771 25.4886 24.3061 22.8557C24.9609 21.1802 25.9197 18.7593 27.245 15.4354C27.5881 14.5749 28.3449 12.6639 28.9269 11.1888C29.5089 9.7137 30.0804 8.2654 30.1969 7.97037C30.3134 7.67535 30.6218 6.89086 30.8822 6.22705C31.6328 4.31346 32.5028 2.13206 32.8253 1.35468L33.1221 0.63947L33.8862 0.581293C35.1501 0.485073 40.8691 0.495488 41.0569 0.594379C41.1499 0.643315 41.349 0.995335 41.4995 1.37664C42.3309 3.48365 44.1626 8.10965 45.0132 10.2501C45.5505 11.6023 46.1646 13.1512 46.378 13.6921C47.6969 17.0357 48.8042 19.8309 49.6894 22.0511C51.0992 25.5871 54.1245 33.2245 56.0106 38.0092C56.4758 39.1893 57.1695 40.9394 57.5522 41.8982C58.5974 44.5173 61.4063 51.62 62.4312 54.2356C63.7405 57.5766 64.7486 60.0904 65.2377 61.2334C66.8299 64.9549 69.5522 67.7283 72.4999 68.6322C74.1517 69.1387 74.7308 69.1188 57.6634 69.1435C42.0988 69.166 42.0511 69.1656 42.1476 68.9881C42.2009 68.8902 42.3557 68.7859 42.4918 68.7564C44.4122 68.3395 46.1308 67.1063 46.8466 65.6315L47.1924 64.919L47.191 63.4886L47.1895 62.0582L46.5873 60.3596C46.2561 59.4253 45.5137 57.3937 44.9375 55.8448C44.3613 54.2959 43.3724 51.6206 42.7399 49.8996C42.1074 48.1786 41.2911 45.9659 40.9259 44.9825C40.5608 43.9991 40.2139 43.0469 40.1552 42.8664C40.0965 42.686 39.983 42.4848 39.9029 42.4194C39.7853 42.3233 38.4376 42.2953 32.8784 42.2735L25.9994 42.2466L25.7159 42.8993C25.56 43.2584 25.1003 44.4171 24.6945 45.4742C24.2886 46.5314 23.5666 48.4021 23.0901 49.6314C22.6136 50.8607 22.0887 52.2285 21.9237 52.671C21.7587 53.1136 21.2483 54.4412 20.7893 55.6213C19.1235 59.9047 18.8819 60.7968 18.8819 62.6619C18.8819 64.6348 19.3079 65.7454 20.5205 66.9332C21.3315 67.7278 22.4563 68.3336 23.6987 68.6451C24.4706 68.8387 24.6984 68.9394 24.6984 69.0871C24.6984 69.1317 19.5202 69.1656 12.6951 69.1656C1.35395 69.1656 0.69358 69.157 0.722256 69.0105ZM12.8473 66.5881C13.3718 66.2136 14.4559 65.0439 15.2489 63.9969C16.2931 62.6181 17.5014 60.3903 18.2883 58.3927C18.4239 58.0485 18.613 57.5963 18.7085 57.3879C18.8039 57.1795 18.882 56.986 18.882 56.958C18.882 56.9299 19.1015 56.3562 19.3698 55.683C19.6381 55.0098 20.0052 54.0769 20.1856 53.6097C20.366 53.1426 20.8162 51.996 21.1861 51.0618C23.9941 43.9696 24.5168 42.6271 24.5168 42.5074C24.5168 42.3173 23.5744 42.257 20.5962 42.2563C18.4226 42.2558 18.1557 42.2718 17.9858 42.4122C17.8734 42.5051 17.516 43.2947 17.1056 44.3567C16.2592 46.547 15.4793 48.5565 15.1954 49.2783C15.0785 49.5758 14.3419 51.4868 13.5586 53.5249C10.9962 60.1921 10.8842 60.5692 10.8842 62.5357C10.8842 63.9573 10.974 64.4914 11.3516 65.3155C11.6054 65.8695 12.2901 66.8411 12.4267 66.8411C12.4631 66.8411 12.6524 66.7272 12.8473 66.5881ZM25.0984 41.0489C25.1726 40.9505 25.3548 40.5482 25.5034 40.1548C25.652 39.7615 26.0451 38.7557 26.377 37.9198C26.7089 37.0839 27.178 35.8971 27.4194 35.2825C27.9072 34.0409 29.9457 28.8969 30.856 26.6105C32.4649 22.5698 32.5293 22.3856 32.4818 21.9617C32.4287 21.488 31.8198 20.0083 31.0843 18.5653C30.7074 17.8261 30.4158 17.3903 30.0439 17.0106C29.539 16.4952 29.5182 16.4843 29.1351 16.5339C28.8067 16.5765 28.6663 16.6654 28.2717 17.0808C27.5773 17.8118 26.5121 20.0337 25.2459 23.3921C25.1069 23.7609 24.0926 26.4161 22.9918 29.2926C21.8911 32.1691 20.8217 34.9651 20.6154 35.506C20.409 36.0469 20.1822 36.6302 20.1112 36.8023C20.0402 36.9744 19.8102 37.5778 19.6001 38.1433C19.3901 38.7088 19.0608 39.5865 18.8683 40.0937C18.6759 40.601 18.5185 41.0509 18.5185 41.0936C18.5185 41.234 18.9865 41.2538 21.9909 41.2407C24.85 41.2281 24.9687 41.2208 25.0984 41.0489ZM35.1291 41.183H39.4415L39.3838 40.9371C39.3218 40.6728 38.7987 39.1882 37.738 36.2659C37.3722 35.2579 36.9296 34.0309 36.7546 33.5391C36.5795 33.0474 36.2655 32.1825 36.0568 31.617C35.6554 30.5295 34.4654 27.2325 33.8788 25.5824C33.6865 25.0416 33.4493 24.418 33.3517 24.1967L33.1743 23.7944L33.0287 24.1073C32.87 24.4484 32.1155 26.4001 30.195 31.4382C29.5108 33.2329 28.4237 36.083 27.7791 37.7717C27.1345 39.4603 26.6072 40.9171 26.6072 41.0088C26.6072 41.1553 26.6989 41.1802 27.357 41.2123C27.7693 41.2324 28.7165 41.234 29.4617 41.2158C30.207 41.1976 32.7573 41.183 35.1291 41.183Z" fill="#1C342C"/>
</svg>
