<svg width="16" height="16" viewBox="0 0 16 16" fill="none" xmlns="http://www.w3.org/2000/svg">
<rect width="16" height="16" fill="#F5F2EB"/>
<path d="M2.98205 12.7472C2.98487 12.7328 3.02139 12.7133 3.09297 12.6879C3.34157 12.5997 3.55967 12.44 3.77257 12.19C4.00832 11.9132 4.17614 11.6041 4.39838 11.0374C4.62293 10.4648 5.01424 9.47138 5.07305 9.32468C5.10304 9.24986 5.14734 9.13857 5.17149 9.07736C5.19565 9.01614 5.23629 8.9132 5.26181 8.84858C5.28732 8.78397 5.36173 8.59477 5.42716 8.42813C5.49259 8.2615 5.57623 8.05004 5.61304 7.95822C5.749 7.61903 6.10187 6.72717 6.2442 6.36299C6.33478 6.13123 6.4674 5.79637 6.65071 5.3366C6.69817 5.21758 6.80286 4.95325 6.88336 4.74921C6.96386 4.54517 7.04291 4.34484 7.05903 4.30403C7.07514 4.26322 7.1178 4.15471 7.15381 4.06289C7.25764 3.7982 7.37798 3.49646 7.4226 3.38893L7.46365 3.29L7.56934 3.28196C7.74416 3.26865 8.53523 3.27009 8.5612 3.28377C8.57406 3.29054 8.60161 3.33923 8.62242 3.39197C8.73742 3.68342 8.99079 4.32329 9.10844 4.61937C9.18276 4.80641 9.26771 5.02065 9.29722 5.09546C9.47966 5.55795 9.63283 5.9446 9.75527 6.2517C9.95027 6.7408 10.3687 7.79721 10.6296 8.45905C10.694 8.62229 10.7899 8.86435 10.8429 8.99698C10.9874 9.35926 11.376 10.3417 11.5177 10.7035C11.6988 11.1656 11.8383 11.5134 11.9059 11.6715C12.1262 12.1862 12.5027 12.5698 12.9105 12.6949C13.1389 12.7649 13.219 12.7622 10.8582 12.7656C8.70532 12.7687 8.69872 12.7686 8.71207 12.7441C8.71944 12.7306 8.74086 12.7161 8.75967 12.7121C9.02531 12.6544 9.26303 12.4838 9.36204 12.2798L9.40987 12.1813L9.40967 11.9834L9.40948 11.7855L9.32618 11.5506C9.28037 11.4214 9.17767 11.1403 9.09797 10.9261C9.01827 10.7119 8.88148 10.3418 8.79399 10.1037C8.70651 9.8657 8.5936 9.55964 8.54309 9.42361C8.49257 9.28758 8.4446 9.15587 8.43648 9.1309C8.42836 9.10594 8.41266 9.07812 8.40158 9.06907C8.38531 9.05578 8.19889 9.05191 7.42994 9.0489L6.47843 9.04517L6.43921 9.13546C6.41764 9.18512 6.35406 9.3454 6.29792 9.49162C6.24178 9.63785 6.14192 9.89662 6.076 10.0667C6.01009 10.2367 5.93749 10.4259 5.91467 10.4871C5.89185 10.5483 5.82124 10.7319 5.75776 10.8952C5.52734 11.4877 5.49391 11.6111 5.49391 11.869C5.49391 12.1419 5.55285 12.2956 5.72057 12.4599C5.83276 12.5698 5.98833 12.6536 6.16019 12.6967C6.26695 12.7234 6.29847 12.7374 6.29847 12.7578C6.29847 12.764 5.58221 12.7686 4.63815 12.7686C3.06942 12.7686 2.97808 12.7675 2.98205 12.7472ZM4.65921 12.4121C4.73175 12.3603 4.88171 12.1985 4.99139 12.0537C5.13583 11.863 5.30296 11.5548 5.41181 11.2785C5.43057 11.2309 5.45672 11.1684 5.46993 11.1395C5.48313 11.1107 5.49394 11.0839 5.49394 11.0801C5.49394 11.0762 5.5243 10.9968 5.56141 10.9037C5.59852 10.8106 5.6493 10.6816 5.67425 10.6169C5.6992 10.5523 5.76148 10.3937 5.81264 10.2645C6.20105 9.28351 6.27335 9.0978 6.27335 9.08124C6.27335 9.05495 6.143 9.04661 5.73104 9.04651C5.43039 9.04645 5.39348 9.04865 5.36997 9.06808C5.35443 9.08093 5.30499 9.19015 5.24822 9.33704C5.13114 9.64002 5.02326 9.91797 4.984 10.0178C4.96782 10.059 4.86593 10.3233 4.75759 10.6052C4.40315 11.5274 4.38767 11.5796 4.38767 11.8516C4.38767 12.0482 4.40009 12.1221 4.45231 12.2361C4.48742 12.3127 4.58213 12.4471 4.60102 12.4471C4.60606 12.4471 4.63224 12.4314 4.65921 12.4121ZM6.35379 8.8795C6.36405 8.8659 6.38926 8.81025 6.40982 8.75584C6.43037 8.70143 6.48475 8.56231 6.53065 8.44668C6.57656 8.33106 6.64145 8.1669 6.67485 8.08188C6.74231 7.91014 7.02428 7.19862 7.1502 6.88237C7.37274 6.32344 7.38165 6.29797 7.37508 6.23933C7.36773 6.17381 7.28352 5.96914 7.18177 5.76954C7.12964 5.66729 7.0893 5.607 7.03787 5.55449C6.96803 5.4832 6.96515 5.48168 6.91215 5.48855C6.86673 5.49444 6.84732 5.50674 6.79273 5.5642C6.69668 5.66531 6.54934 5.97264 6.3742 6.43719C6.35497 6.4882 6.21467 6.85547 6.06241 7.25335C5.91016 7.65123 5.76223 8.03798 5.7337 8.1128C5.70516 8.18761 5.67377 8.2683 5.66395 8.29211C5.65413 8.31591 5.62232 8.39938 5.59327 8.4776C5.56421 8.55581 5.51866 8.67722 5.49204 8.74739C5.46543 8.81755 5.44365 8.87979 5.44365 8.88568C5.44365 8.9051 5.50838 8.90785 5.92397 8.90603C6.31943 8.9043 6.33585 8.90329 6.35379 8.8795ZM7.74126 8.89805H8.33776L8.32978 8.86404C8.3212 8.82748 8.24885 8.62212 8.10213 8.21791C8.05152 8.07848 7.99031 7.90876 7.96609 7.84074C7.94188 7.77273 7.89845 7.65309 7.86958 7.57487C7.81405 7.42445 7.64946 6.9684 7.56832 6.74016C7.54172 6.66534 7.50891 6.57909 7.49541 6.54848L7.47086 6.49283L7.45072 6.53611C7.42877 6.58329 7.32442 6.85326 7.05876 7.55014C6.96413 7.79839 6.81375 8.19261 6.7246 8.42619C6.63544 8.65977 6.56249 8.86127 6.56249 8.87396C6.56249 8.89422 6.57518 8.89767 6.6662 8.90211C6.72324 8.90489 6.85426 8.90511 6.95734 8.90259C7.06042 8.90008 7.41319 8.89805 7.74126 8.89805Z" fill="#1C342C"/>
</svg>
