<svg width="538" height="119" viewBox="0 0 538 119" fill="none" xmlns="http://www.w3.org/2000/svg">
<path d="M0.00139904 118.499C0.0361227 118.319 0.48623 118.075 1.36815 117.758C4.43145 116.655 7.1188 114.656 9.74215 111.53C12.6471 108.069 14.7149 104.203 17.4533 97.1143C20.2202 89.9522 25.0418 77.5279 25.7665 75.6931C26.136 74.7574 26.6819 73.3654 26.9795 72.5998C27.2771 71.8342 27.7779 70.5466 28.0923 69.7385C28.4068 68.9304 29.3236 66.564 30.1298 64.4799C30.936 62.3957 31.9666 59.7509 32.4202 58.6026C34.0955 54.3602 38.4435 43.2056 40.1973 38.6507C41.3134 35.7521 42.9476 31.5639 45.2063 25.8135C45.791 24.3248 47.081 21.0189 48.073 18.4669C49.0649 15.9149 50.0389 13.4093 50.2375 12.8989C50.4361 12.3885 50.9617 11.0313 51.4054 9.88296C52.6848 6.57242 54.1676 2.79857 54.7173 1.45369L55.2232 0.216365L56.5256 0.115718C58.6796 -0.0507443 68.4271 -0.0327253 68.7471 0.138357C68.9056 0.223018 69.245 0.832017 69.5015 1.49168C70.9184 5.13684 74.0405 13.1399 75.4901 16.8429C76.4059 19.1823 77.4526 21.8618 77.8163 22.7976C80.0642 28.582 81.9516 33.4178 83.4602 37.2588C85.863 43.376 91.0192 56.5888 94.234 64.8666C95.0269 66.9081 96.2092 69.9357 96.8614 71.5945C98.6428 76.1256 103.43 88.4134 105.177 92.9383C107.409 98.7184 109.127 103.067 109.96 105.045C112.674 111.483 117.314 116.281 122.338 117.845C125.153 118.721 126.14 118.686 97.051 118.729C70.5229 118.768 70.4416 118.767 70.6061 118.46C70.6969 118.291 70.9608 118.111 71.1927 118.06C74.4658 117.338 77.395 115.205 78.615 112.653L79.2043 111.421L79.2019 108.946L79.1995 106.472L78.1731 103.533C77.6086 101.917 76.3432 98.4019 75.3611 95.7223C74.3791 93.0427 72.6936 88.4144 71.6156 85.437C70.5376 82.4597 69.1463 78.6318 68.5239 76.9305C67.9015 75.2291 67.3104 73.5817 67.2103 73.2695C67.1103 72.9573 66.9168 72.6093 66.7803 72.4962C66.5798 72.33 64.2828 72.2815 54.8078 72.2438L43.0834 72.1972L42.6002 73.3265C42.3344 73.9476 41.551 75.9522 40.8592 77.7811C40.1675 79.61 38.937 82.8464 38.1248 84.9731C37.3126 87.0997 36.418 89.4661 36.1368 90.2317C35.8556 90.9973 34.9856 93.2941 34.2034 95.3356C31.3642 102.746 30.9523 104.289 30.9523 107.516C30.9523 110.929 31.6785 112.85 33.7452 114.905C35.1275 116.28 37.0445 117.328 39.1621 117.867C40.4776 118.202 40.866 118.376 40.866 118.632C40.866 118.709 32.0403 118.767 20.4077 118.767C1.07804 118.767 -0.0474765 118.753 0.00139904 118.499ZM20.6672 114.308C21.561 113.661 23.4088 111.637 24.7603 109.826C26.5401 107.44 28.5994 103.586 29.9407 100.13C30.1718 99.5348 30.4941 98.7525 30.6568 98.3919C30.8195 98.0313 30.9526 97.6966 30.9526 97.6481C30.9526 97.5995 31.3267 96.607 31.784 95.4424C32.2413 94.2778 32.8669 92.6637 33.1744 91.8556C33.4819 91.0475 34.2492 89.0639 34.8797 87.4477C39.6655 75.1781 40.5565 72.8554 40.5565 72.6484C40.5565 72.3196 38.9503 72.2152 33.8742 72.214C30.1695 72.2132 29.7148 72.2408 29.4252 72.4838C29.2336 72.6445 28.6244 74.0105 27.9249 75.8478C26.4823 79.6371 25.153 83.1135 24.6693 84.3622C24.4699 84.8769 23.2144 88.1829 21.8794 91.7088C17.5121 103.243 17.3213 103.896 17.3213 107.298C17.3213 109.757 17.4744 110.681 18.1179 112.107C18.5505 113.065 19.7174 114.746 19.9502 114.746C20.0123 114.746 20.3349 114.549 20.6672 114.308ZM41.5477 70.1251C41.6741 69.955 41.9847 69.259 42.238 68.5785C42.4912 67.898 43.1613 66.158 43.7269 64.7118C44.2926 63.2657 45.0921 61.2125 45.5036 60.1492C46.335 58.0012 49.8093 49.1021 51.3609 45.1467C54.103 38.1561 54.2128 37.8375 54.1318 37.1041C54.0413 36.2846 53.0036 33.7248 51.7499 31.2284C51.1076 29.9495 50.6105 29.1955 49.9767 28.5387C49.1162 27.647 49.0807 27.6281 48.4277 27.714C47.8681 27.7876 47.6288 27.9414 46.9563 28.6601C45.7727 29.9247 43.9572 33.7686 41.7992 39.5787C41.5622 40.2167 39.8334 44.8103 37.9573 49.7866C36.0812 54.763 34.2586 59.6002 33.9069 60.5359C33.5552 61.4716 33.1685 62.4808 33.0475 62.7785C32.9265 63.0763 32.5346 64.1203 32.1765 65.0985C31.8185 66.0768 31.2572 67.5952 30.9293 68.4728C30.6013 69.3504 30.333 70.1287 30.333 70.2025C30.333 70.4454 31.1306 70.4797 36.2514 70.457C41.1243 70.4353 41.3266 70.4227 41.5477 70.1251ZM58.6439 70.3571H65.9939L65.8955 69.9318C65.7898 69.4745 64.8983 66.9061 63.0905 61.8505C62.4669 60.1067 61.7126 57.9839 61.4143 57.1332C61.1159 56.2826 60.5807 54.7862 60.225 53.8079C59.5408 51.9266 57.5127 46.2227 56.5129 43.368C56.1852 42.4323 55.7809 41.3535 55.6145 40.9707L55.3121 40.2747L55.0639 40.816C54.7935 41.406 53.5076 44.7827 50.2343 53.4986C49.0682 56.6035 47.2153 61.5342 46.1167 64.4556C45.0181 67.377 44.1192 69.8971 44.1192 70.0559C44.1192 70.3093 44.2756 70.3524 45.3972 70.4079C46.1 70.4427 47.7143 70.4455 48.9845 70.4139C50.2547 70.3825 54.6014 70.3571 58.6439 70.3571ZM301.72 85.9783C301.72 85.8933 301.846 85.8237 301.999 85.8237C302.792 85.8237 303.645 84.0221 306.745 75.8091C307.18 74.6583 307.338 74.4863 307.526 74.9584C307.586 75.1073 308.25 76.8343 309.003 78.7963C311.371 84.969 311.801 85.8098 312.593 85.8202C312.737 85.8227 312.898 85.8933 312.95 85.9783C313.057 86.1516 310.78 86.1641 310.007 85.9945C309.637 85.9133 309.598 85.8707 309.813 85.7856C310.209 85.6295 310.15 85.3276 309.319 83.2717L308.57 81.4157L307.028 81.3719L305.487 81.328L304.663 83.4401C303.903 85.3894 303.861 85.564 304.115 85.706C304.339 85.8309 304.351 85.8849 304.178 85.994C303.88 86.1826 301.72 86.1689 301.72 85.9783ZM308.226 80.5185C308.226 80.4929 307.958 79.7858 307.632 78.9473L307.038 77.4228L306.47 78.8856C306.158 79.6902 305.902 80.3971 305.902 80.4567C305.902 80.5163 306.425 80.5651 307.064 80.5651C307.703 80.5651 308.226 80.5441 308.226 80.5185ZM315.351 86.0191C315.351 85.952 315.507 85.8283 315.697 85.7444C316.382 85.442 316.431 85.0844 316.431 80.4104C316.431 75.737 316.385 75.406 315.694 75.0618C315.502 74.9665 315.296 74.8386 315.235 74.7775C315.068 74.6117 321.193 74.8353 322.089 75.0278C323.835 75.4026 325.159 76.4175 325.866 77.9224C326.224 78.685 326.271 78.977 326.268 80.4104C326.264 82.3139 326.009 83.0403 324.936 84.202C324.186 85.0149 323.232 85.5479 322.089 85.7924C321.144 85.9947 315.351 86.1896 315.351 86.0191ZM321.935 84.9489C323.007 84.5843 324.202 83.3732 324.626 82.2219C325.329 80.3112 324.9 78.2959 323.498 76.9217C322.487 75.9307 321.482 75.6158 319.33 75.6158H317.83V80.1275C317.83 84.1088 317.86 84.6726 318.086 84.9222C318.434 85.3062 320.836 85.3229 321.935 84.9489ZM331.33 85.869C331.243 85.7055 330.446 83.697 329.559 81.4057C327.439 75.9289 327.21 75.4657 326.427 75.0744L325.807 74.7651L326.659 74.7152C327.128 74.6878 327.883 74.7106 328.337 74.7666C329.115 74.862 329.148 74.8836 328.914 75.1418C328.684 75.3958 328.771 75.6843 330.118 79.1117C330.916 81.1445 331.623 82.9469 331.688 83.117C331.782 83.3607 331.824 83.3771 331.886 83.1944C332.554 81.2395 334.084 77.3059 334.493 76.4928C334.785 75.9118 335.024 75.3771 335.024 75.3045C335.024 75.2319 334.873 75.1248 334.689 75.0664C334.045 74.8624 334.801 74.6723 336.067 74.7199L337.27 74.7651L336.72 75.0146C336.059 75.3153 335.79 75.7022 335.182 77.2308C334.927 77.8723 334.646 78.5195 334.559 78.6691C334.471 78.8187 333.804 80.507 333.076 82.421C332.348 84.335 331.693 85.9607 331.621 86.0336C331.548 86.1069 331.418 86.0332 331.33 85.869ZM340.29 85.878C338.978 85.4256 337.999 84.4985 337.292 83.0397C336.845 82.1176 336.805 81.9061 336.805 80.4845C336.805 79.0455 336.841 78.8608 337.313 77.9039C338.282 75.9386 339.969 74.8833 342.381 74.7329C344.108 74.6253 345.16 75.0211 346.349 76.2259C348.117 78.0187 348.517 80.8624 347.33 83.2086C346.793 84.2693 345.452 85.4167 344.293 85.8078C343.129 86.2003 341.317 86.232 340.29 85.878ZM344.895 84.4851C346.398 83.7759 347.04 82.5506 346.924 80.6116C346.81 78.6913 345.78 77.0583 344.191 76.2793C343.432 75.9073 343.129 75.8486 341.994 75.854C340.874 75.8593 340.558 75.9224 339.874 76.2771C338.062 77.2167 337.401 79.2045 338.123 81.5392C338.463 82.638 339.467 83.9238 340.349 84.3912C341.68 85.0961 343.521 85.1341 344.895 84.4851ZM355.006 85.918C351.907 85.2299 350.167 82.6419 350.662 79.4558C350.754 78.8624 350.997 78.0487 351.2 77.6475C351.658 76.746 352.774 75.6983 353.698 75.3028C355.736 74.4306 358.966 74.546 360.494 75.5455C360.789 75.7383 360.892 75.9389 360.892 76.3169C360.892 77.3085 360.765 77.378 360.08 76.7606C359.098 75.874 358.218 75.5427 356.853 75.5447C354.371 75.5483 352.503 77.1108 352.049 79.5636C351.64 81.7747 352.806 84.0304 354.832 84.9442C355.857 85.4066 357.753 85.4054 358.762 84.9418L359.498 84.6038V83.1644C359.498 82.3728 359.444 81.6482 359.382 81.5542C359.319 81.4602 359.059 81.2716 358.803 81.1351C358.353 80.8942 358.391 80.8866 360.098 80.8806L361.857 80.8746L361.36 81.3374L360.864 81.8003L360.918 83.3606C360.97 84.8766 360.961 84.929 360.583 85.2036C359.429 86.0428 356.982 86.3564 355.008 85.9182L355.006 85.918ZM361.512 85.9783C361.512 85.8933 361.638 85.8237 361.793 85.8237C361.947 85.8237 362.255 85.6323 362.477 85.3983C362.928 84.9237 363.385 83.8648 365.466 78.4829C366.254 76.4445 366.965 74.7545 367.047 74.7273C367.129 74.7001 367.77 76.1939 368.472 78.0468C371.104 84.9939 371.52 85.8237 372.376 85.8237C372.535 85.8237 372.665 85.8932 372.665 85.9783C372.665 86.1681 370.086 86.1681 369.644 85.9783C369.474 85.9052 369.414 85.8405 369.511 85.8345C369.931 85.8087 369.83 85.2099 369.09 83.3346L368.303 81.3384H366.783H365.263L364.472 83.2602C363.615 85.3407 363.552 85.6296 363.926 85.7727C364.123 85.8484 364.131 85.8922 363.964 85.9975C363.67 86.1837 361.512 86.1669 361.512 85.9783ZM367.606 79.521C367.387 78.9469 367.14 78.2857 367.056 78.0517C366.972 77.8178 366.857 77.6264 366.8 77.6264C366.744 77.6264 366.444 78.2876 366.133 79.0957L365.568 80.565H366.786H368.004L367.606 79.521ZM375.06 85.9869C375.116 85.8971 375.251 85.8237 375.361 85.8237C375.47 85.8237 375.693 85.6773 375.855 85.4984C376.125 85.2001 376.154 84.8496 376.202 81.2837C376.231 79.1446 376.207 76.9534 376.149 76.4144C376.051 75.4935 376.011 75.4143 375.478 75.0998C374.934 74.7786 374.926 74.7634 375.298 74.7219C375.511 74.6982 377.079 74.7405 378.783 74.8159C382.603 74.9849 383.275 75.1833 384.609 76.5349C385.74 77.6818 386.067 78.5755 386.054 80.4877C386.046 81.674 385.979 82.0237 385.603 82.8542C384.841 84.5381 383.196 85.6814 381.236 85.8888C379.471 86.0757 374.961 86.1473 375.06 85.9869ZM382.086 84.7304C383.337 84.106 384.053 83.2561 384.464 81.9049C385.199 79.4869 384.181 77 382.074 76.0664C381.409 75.7719 380.925 75.6958 379.403 75.6464L377.544 75.5861L377.581 79.9702C377.601 82.3815 377.618 84.4364 377.619 84.5366C377.624 85.0464 378.1 85.205 379.621 85.205C381 85.205 381.219 85.1629 382.086 84.7304ZM385.676 85.9783C385.676 85.8933 385.802 85.8237 385.956 85.8237C386.748 85.8237 387.602 84.0221 390.702 75.8091C391.136 74.6584 391.294 74.4861 391.482 74.9584C391.542 75.1073 392.276 77.0148 393.114 79.1973C395.456 85.296 395.518 85.4099 396.752 85.9249C397.142 86.0876 394.828 86.1953 394.046 86.0508C393.599 85.9684 393.553 85.9262 393.774 85.8026C394.158 85.588 394.11 85.3375 393.282 83.2717L392.539 81.4157L390.994 81.372L389.45 81.3282L388.646 83.3271C387.909 85.1592 387.785 85.8237 388.18 85.8237C388.262 85.8237 388.285 85.8933 388.232 85.9784C388.18 86.0634 387.583 86.133 386.906 86.133C386.19 86.133 385.676 86.0684 385.676 85.9783ZM392.182 80.5184C392.182 80.4929 391.915 79.7858 391.588 78.9473L390.994 77.4228L390.426 78.8856C390.114 79.6901 389.859 80.3972 389.859 80.4567C389.859 80.5163 390.381 80.565 391.02 80.565C391.659 80.565 392.182 80.5441 392.182 80.5184ZM161.775 82.2319C161.457 81.7776 161.471 81.556 161.844 81.1837C162.153 80.8753 162.36 80.8744 227.576 80.8744C290.758 80.8744 293.006 80.884 293.254 81.1572C293.59 81.5283 293.579 82.0014 293.227 82.3197C292.964 82.5571 288.177 82.5757 227.48 82.5757H162.017L161.775 82.2319ZM403.696 82.1712C403.458 81.8083 403.455 81.7248 403.659 81.3592L403.889 80.9517L469.483 80.9106L535.078 80.8697L535.349 81.1985C535.697 81.6208 535.693 81.9978 535.337 82.3197C535.075 82.557 530.282 82.5757 469.508 82.5757H403.962L403.696 82.1712ZM450.041 59.9912C448.372 59.6067 446.978 59.0299 445.827 58.248C443.086 56.3858 437.407 52.0346 433.759 49.0014L431.42 47.0562L431.319 50.3024C431.174 54.919 431.193 56.9708 431.382 57.4711C431.647 58.1725 432.307 58.7544 432.953 58.8576C433.28 58.9098 433.541 59.0397 433.541 59.1504C433.541 59.3929 432.424 59.4897 428.404 59.5954C425.936 59.6602 425.501 59.6377 425.425 59.4404C425.376 59.3134 425.421 59.1826 425.527 59.1498C425.632 59.117 425.977 59.0105 426.294 58.9133C426.961 58.7085 427.54 58.0848 427.835 57.2532C428.132 56.4147 428.138 36.5711 427.842 35.594C427.553 34.6426 426.83 33.8867 426.01 33.6807C425.619 33.5822 425.332 33.4197 425.332 33.2964C425.332 33.1223 425.826 33.0858 428.004 33.0991C431.797 33.1224 433.464 33.2571 433.464 33.5404C433.464 33.6668 433.259 33.8081 432.999 33.8615C432.236 34.0183 431.856 34.2966 431.528 34.9377C431.249 35.4847 431.22 35.8265 431.237 38.3739C431.247 39.9297 431.299 42.159 431.353 43.3277L431.45 45.4528L436.794 40.2777C440.624 36.5695 442.152 34.9919 442.187 34.7121C442.226 34.4025 442.12 34.253 441.673 33.9897C440.629 33.3748 441.107 33.2773 445.469 33.2158C448.896 33.1675 449.419 33.1907 449.419 33.3914C449.419 33.5566 449.168 33.654 448.543 33.732C447.369 33.8784 445.967 34.4673 444.801 35.303C443.98 35.892 434.447 45.0059 434.364 45.2811C434.337 45.3713 442.09 51.8318 448.902 57.3949C451.347 59.3921 451.77 59.7982 451.646 60.0299C451.565 60.1806 451.449 60.2975 451.388 60.2898C451.327 60.2821 450.721 60.1477 450.041 59.9912ZM520.634 60.0569C520.235 59.8753 520.463 59.5616 521.112 59.3984C521.82 59.2203 522.553 58.6123 522.782 58.0125C522.857 57.8156 522.919 55.3965 522.919 52.6367V47.619L519.607 42.6322C514.576 35.0553 514.409 34.8616 512.59 34.4551C512.117 34.3495 511.621 34.1541 511.488 34.0209C511.267 33.8011 511.387 33.7751 512.783 33.7384C515.291 33.6727 519.089 33.9033 519.162 34.1258C519.198 34.2316 519.03 34.3926 518.791 34.4835C517.838 34.8454 517.893 35.3741 519.06 37.058C519.579 37.8064 521.084 40.044 522.406 42.0305C523.779 44.0956 524.866 45.5842 524.944 45.5068C525.148 45.3028 531.551 36.15 531.761 35.7627C532.04 35.2462 531.824 34.686 531.27 34.4934C529.984 34.0458 531.347 33.7955 535.737 33.6728C537.248 33.6305 537.48 33.6568 537.48 33.8702C537.48 34.0416 537.226 34.1729 536.642 34.3033C534.812 34.7122 534.268 35.3423 528.741 43.4454L526.156 47.2347L526.203 52.4933C526.243 57.0927 526.282 57.812 526.512 58.2316C526.826 58.8037 527.283 59.1243 528.158 59.3859C528.514 59.4924 528.805 59.6729 528.805 59.787C528.805 59.9531 528.237 59.9946 525.963 59.9946C524.399 59.9946 522.604 60.0284 521.974 60.0698C521.344 60.1112 520.741 60.1054 520.634 60.0569ZM283.664 58.4939C282.992 57.7456 281.67 56.298 280.728 55.2773C278.345 52.6971 275.817 49.849 272.216 45.688C270.524 43.7315 268.54 41.4565 267.809 40.6325L266.48 39.1343L266.377 48.1338C266.258 58.5641 266.179 57.9293 267.672 58.5881C268.61 59.0023 268.816 59.3202 268.223 59.441C268.031 59.4801 266.502 59.5448 264.826 59.5849C262.26 59.6463 261.764 59.6224 261.692 59.4336C261.644 59.3104 261.692 59.1826 261.797 59.1498C261.902 59.1169 262.247 59.0105 262.564 58.9133C262.88 58.8161 263.31 58.5342 263.518 58.2868C264.31 57.3471 264.311 57.3342 264.311 47.4666C264.311 42.4052 264.276 37.0126 264.234 35.483C264.164 32.9721 264.181 32.697 264.415 32.6514C264.689 32.5978 271.077 39.5138 276.242 45.456C279.924 49.6932 283.162 53.3439 283.237 53.3439C283.27 53.3439 283.251 51.517 283.195 49.284C283.134 46.8864 283.166 43.3421 283.274 40.6279C283.467 35.7652 283.425 35.1976 282.812 34.4194C282.636 34.1967 282.191 33.9266 281.822 33.8193C280.308 33.3784 281.279 33.1638 285.339 33.0418C287.428 32.979 287.624 32.9961 287.624 33.2406C287.624 33.4125 287.462 33.5404 287.171 33.5985C286.922 33.6482 286.532 33.8831 286.304 34.1205C285.446 35.0131 285.42 35.1962 285.259 41.28C285.128 46.2397 285.206 51.7751 285.511 59.2212C285.529 59.6607 285.472 59.7712 285.21 59.8086C284.972 59.8426 284.567 59.4978 283.664 58.4939ZM164.419 59.4469C164.364 59.3034 164.591 59.1653 165.147 59.0039C166.15 58.7127 166.999 58.0928 167.582 57.2263C168.122 56.4238 175.096 38.9791 176.402 35.1647C176.869 33.7996 177.281 32.9268 177.454 32.9305C177.895 32.9398 177.844 32.8193 181.516 42.5174C183.894 48.7991 184.418 50.1333 186.133 54.2719C187.48 57.5226 188.069 58.3186 189.5 58.8229C191.435 59.5049 191.151 59.6152 187.595 59.5631C183.967 59.51 183.066 59.4258 183.066 59.1398C183.066 59.0259 183.207 58.888 183.38 58.8333C183.552 58.7786 183.8 58.571 183.931 58.372C184.153 58.0333 184.119 57.8792 183.388 55.9478C182.959 54.8134 182.132 52.7021 181.549 51.256L180.491 48.6266L176.929 48.5852L173.366 48.5438L171.606 52.9159C169.617 57.8561 169.502 58.3771 170.322 58.7573C170.905 59.0278 170.977 59.3397 170.48 59.4412C170.288 59.4803 168.864 59.5445 167.315 59.5839C165.046 59.6416 164.484 59.6149 164.419 59.4469ZM179.658 46.5786C179.658 46.3856 176.974 39.4232 176.92 39.4769C176.892 39.5045 176.391 40.7741 175.806 42.2982C175.221 43.8223 174.595 45.4347 174.414 45.8813L174.086 46.6933H176.872C178.404 46.6933 179.658 46.6417 179.658 46.5786ZM196.154 59.5294C196.006 59.2908 196.184 59.1147 196.672 59.0174C197.212 58.9095 198.026 58.2512 198.308 57.6948C198.421 57.471 198.593 56.8355 198.69 56.2826C199.274 52.938 200.405 41.3507 200.718 35.4945C200.799 33.9713 200.932 32.6591 201.012 32.5785C201.105 32.4863 201.259 32.4877 201.428 32.5822C201.827 32.805 204.125 37.2055 207.303 43.8321C208.853 47.0646 210.609 50.6772 211.206 51.8601L212.291 54.0108L212.873 52.6334C213.193 51.8758 214.069 49.7596 214.819 47.9307C216.666 43.4276 217.869 40.6316 219.343 37.4134C221.342 33.0505 221.874 32.1762 222.282 32.5835C222.353 32.6547 222.483 33.9967 222.57 35.5658C222.904 41.6116 224.037 52.7629 224.666 56.2053C224.966 57.8462 225.468 58.5863 226.52 58.9358C226.981 59.089 227.311 59.297 227.343 59.4539C227.392 59.6973 227.104 59.7079 223.316 59.6029C219.418 59.4949 219.013 59.4409 219.005 59.0279C219.003 58.9641 219.147 58.9119 219.323 58.9119C220.025 58.9119 221.099 58.0462 221.25 57.3575C221.302 57.1219 221.169 55.6179 220.955 54.0152C220.74 52.4126 220.385 49.1873 220.165 46.848C219.945 44.5087 219.716 42.3993 219.655 42.1604C219.527 41.6554 219.122 42.5404 215.461 51.3333C212.188 59.195 212.139 59.2986 211.704 59.2986C211.378 59.2986 211.143 58.9116 209.681 55.9733C208.772 54.1444 207.421 51.3604 206.68 49.7867C204.285 44.6997 202.535 41.1254 202.439 41.1254C202.387 41.1254 202.151 43.2656 201.913 45.8814C201.675 48.4971 201.301 52.0743 201.082 53.8305C200.862 55.5868 200.73 57.2139 200.789 57.4463C200.953 58.1001 201.686 58.7341 202.412 58.8499C203.105 58.9606 203.281 59.3229 202.699 59.4404C201.907 59.6006 196.246 59.6776 196.154 59.5294ZM232.72 59.5439C232.55 59.2702 232.745 59.113 233.378 59.0119C234.113 58.8946 235.119 58.186 235.713 57.3674C236.324 56.5248 239.843 47.8139 244.117 36.5627C244.796 34.7763 245.449 33.2163 245.568 33.096C245.864 32.7973 246.155 33.055 246.471 33.8969C248.527 39.3753 252.462 49.6359 253.425 52.0292C255.075 56.1342 255.586 57.1862 256.274 57.8936C256.88 58.516 257.885 59.0573 258.447 59.0631C258.759 59.0655 259.039 59.4075 258.869 59.5769C258.735 59.7104 251.777 59.4964 251.493 59.3501C251.099 59.1468 251.16 58.9638 251.681 58.7822C252.607 58.4601 252.571 58.3067 250.192 52.3226L248.689 48.5437L245.125 48.5851L241.562 48.6265L240.064 52.2612C237.668 58.0782 237.58 58.4529 238.526 58.7822C239.068 58.9711 239.13 59.3397 238.636 59.4421C237.776 59.6206 232.82 59.7058 232.72 59.5439ZM247.6 45.7266C245.095 39.1251 245.237 39.4715 245.105 39.6029C245.033 39.6743 242.624 45.8437 242.442 46.4226C242.363 46.6735 242.561 46.6933 245.162 46.6933H247.967L247.6 45.7266ZM292.913 59.4619C292.944 59.3078 293.235 59.1007 293.588 58.9807C294.374 58.7133 295.137 57.891 295.398 57.0296C295.694 56.0551 295.693 36.9596 295.398 35.676C295.166 34.6691 294.552 34.0313 293.518 33.7218C293.191 33.6239 292.883 33.4401 292.834 33.3133C292.729 33.0402 292.721 33.0403 301.255 33.2364C306.082 33.3473 307.3 33.4209 308.458 33.6718C314.414 34.9617 317.945 38.7534 318.624 44.5906C319.028 48.0567 318.122 51.8197 316.288 54.3002C314.307 56.9777 310.927 58.7578 306.986 59.1994C306.177 59.29 303.145 59.403 300.249 59.4505C297.352 59.498 294.504 59.5809 293.92 59.6347C292.963 59.7229 292.864 59.7059 292.913 59.4619ZM307.115 57.2844C312.532 56.0094 316.136 50.5643 315.354 44.8373C314.704 40.0789 311.823 36.7213 307.374 35.5364C306.322 35.2563 305.564 35.1952 302.361 35.1321L298.587 35.0578L298.703 36.0422C298.767 36.5837 298.828 41.307 298.839 46.5386C298.857 55.2765 298.881 56.0911 299.13 56.5493C299.609 57.4319 299.926 57.507 303.191 57.5114C305.272 57.5138 306.422 57.4476 307.115 57.2844ZM321.153 59.5194C321.003 59.277 321.209 59.1062 321.78 58.9992C322.466 58.8708 323.33 58.0286 323.571 57.2521C323.819 56.4561 323.959 40.2697 323.743 37.3797C323.534 34.5843 323.49 34.5116 321.402 33.55C321.279 33.4935 321.148 33.3553 321.11 33.2429C321.054 33.0752 321.76 33.0587 325.051 33.1506C327.256 33.2122 329.12 33.3204 329.194 33.3912C329.391 33.5811 329.165 33.856 328.811 33.856C328.25 33.856 327.596 34.3175 327.28 34.9357C326.925 35.6315 326.901 36.4509 327.071 42.0935L327.173 45.459L334.313 45.4187L341.452 45.3785L341.555 40.7386C341.616 37.9756 341.599 35.8668 341.512 35.5256C341.293 34.6622 340.698 34.048 339.935 33.8974C339.524 33.8163 339.284 33.685 339.284 33.5417C339.284 33.3524 339.941 33.2863 343.234 33.1445C346.971 32.9835 347.72 33.0265 347.495 33.3895C347.455 33.4539 347.2 33.551 346.929 33.6053C346.232 33.7444 345.41 34.4173 345.135 35.0741C344.551 36.4717 344.56 56.4964 345.146 57.6279C345.446 58.2079 345.797 58.5028 346.701 58.9359C347.118 59.1353 347.431 59.368 347.398 59.4531C347.337 59.6114 340.629 59.5933 339.787 59.4325C339.553 59.3878 339.361 59.2536 339.361 59.1344C339.361 59.0152 339.553 58.8785 339.787 58.8307C340.52 58.6811 340.961 58.3864 341.287 57.8288C341.638 57.2291 341.633 57.3383 341.568 51.0625L341.529 47.3118H334.344H327.159L327.045 51.4C326.897 56.7177 326.937 57.324 327.486 58.0422C327.794 58.4457 328.106 58.6501 328.603 58.7751C329.673 59.0443 329.482 59.3349 328.169 59.4345C325.918 59.6054 321.241 59.662 321.153 59.5194ZM352.857 59.4765C352.696 59.2826 352.792 59.211 353.488 59.0072C355.342 58.4642 355.885 57.763 357.488 53.8471C358.756 50.7495 362.974 39.9637 364.515 35.878C365.074 34.3956 365.621 33.1265 365.729 33.0579C366.205 32.7566 365.978 32.2326 370.268 43.5226C371.851 47.6909 373.713 52.4486 374.404 54.0953C375.835 57.5053 376.429 58.3183 377.857 58.8216C379.824 59.5154 379.526 59.6152 375.645 59.5598C373.793 59.5333 372.086 59.4756 371.851 59.4315C371.304 59.3284 371.31 59.0557 371.868 58.7392C372.11 58.6016 372.345 58.3474 372.39 58.1742C372.474 57.8551 371.708 55.7224 369.849 51.1012L368.853 48.6266L365.294 48.5851L361.736 48.5437L360.312 51.9878C357.814 58.0315 357.743 58.322 358.681 58.7572C359.265 59.0277 359.337 59.3395 358.84 59.4415C358.648 59.4808 357.266 59.5563 355.769 59.6091C353.473 59.6903 353.017 59.6695 352.857 59.4765ZM368.02 46.5773C368.025 46.3906 365.332 39.4249 365.277 39.4796C365.25 39.507 364.711 40.8802 364.08 42.5313C363.45 44.1824 362.822 45.7943 362.685 46.1133L362.437 46.6933H365.227C366.762 46.6933 368.019 46.6411 368.02 46.5773ZM393.8 59.5172C393.647 59.2688 393.863 59.1098 394.49 59.0096C395.221 58.8928 396.273 58.128 396.863 57.283C397.423 56.4811 404.042 39.9459 405.886 34.7413C406.121 34.0798 406.44 33.3838 406.595 33.1946C406.846 32.8897 406.903 32.877 407.104 33.0827C407.331 33.3153 408.713 36.8338 411.754 44.9146C413.353 49.1651 415.657 54.8801 416.421 56.493C417.064 57.8509 418.525 59.0527 419.544 59.0631C419.867 59.0655 420.161 59.4537 419.941 59.5872C419.757 59.6993 412.715 59.4471 412.511 59.321C412.205 59.1325 412.288 58.9256 412.711 58.8197C413.119 58.7173 413.404 58.3405 413.404 57.9021C413.404 57.761 412.59 55.5975 411.596 53.0945L409.788 48.5437L406.222 48.5851L402.656 48.6265L401.138 52.4092C398.746 58.3666 398.722 58.4688 399.632 58.7854C400.167 58.9716 400.224 59.3409 399.734 59.4409C399.01 59.5883 393.885 59.6542 393.8 59.5172ZM409.041 46.562C409.012 46.4898 408.397 44.8892 407.672 43.0051C406.948 41.1211 406.313 39.5794 406.262 39.5791C406.21 39.5789 405.937 40.1877 405.654 40.932C405.372 41.6763 404.77 43.2366 404.315 44.3994C403.861 45.5621 403.49 46.5539 403.49 46.6034C403.49 46.6528 404.75 46.6933 406.291 46.6933C407.832 46.6933 409.069 46.6342 409.041 46.562ZM457.045 59.5925C456.799 59.3474 456.953 59.1007 457.409 59.0098C458.138 58.8641 458.726 58.3669 459.125 57.5574L459.487 56.8239V46.3066V35.7894L459.125 35.0565C458.814 34.4264 458.624 34.2568 457.767 33.8483C457.218 33.587 456.799 33.3252 456.835 33.2666C456.872 33.208 460.442 33.1667 464.77 33.1748C471.584 33.1875 472.658 33.2207 472.785 33.4215C473.02 33.7932 472.707 37.1814 472.438 37.1814C472.178 37.1814 472.039 36.9394 471.772 36.0226C471.631 35.5402 471.451 35.276 471.182 35.1586C470.92 35.0443 469.477 35.0118 466.728 35.0583L462.662 35.1271V39.0929C462.662 41.2741 462.708 43.5342 462.763 44.1153L462.863 45.172L465.434 45.1207C467.801 45.0734 468.044 45.0419 468.49 44.7244C468.756 44.5347 469.09 44.1345 469.233 43.8351C469.398 43.4863 469.6 43.2907 469.794 43.2907C470.083 43.2907 470.096 43.4162 470.096 46.0912C470.096 48.5814 470.069 48.8813 469.851 48.7979C469.717 48.7463 469.582 48.704 469.551 48.704C469.521 48.704 469.346 48.4367 469.162 48.1101C468.587 47.0886 468.296 47.0027 465.409 47.0027H462.861L462.762 48.0467C462.708 48.6209 462.663 50.9872 462.662 53.3053V57.5199L466.651 57.5566C471.871 57.6045 472.313 57.5812 473.02 57.2212C473.663 56.8935 474.59 55.9354 474.59 55.5978C474.59 55.3312 474.943 55.1905 475.206 55.3525C475.366 55.4514 475.316 55.8785 474.959 57.4649L474.512 59.4533L466.38 59.4626C461.907 59.4678 458.002 59.5246 457.703 59.589C457.403 59.6534 457.107 59.6549 457.045 59.5925ZM479.798 59.4483C479.748 59.317 479.792 59.1826 479.898 59.1497C480.003 59.1169 480.34 59.0131 480.647 58.9191C481.761 58.5779 482.195 57.7623 482.55 55.3471C483.162 51.1785 484.228 39.8424 484.441 35.248C484.552 32.8527 484.648 32.45 485.084 32.5637C485.453 32.6602 488.226 37.9289 491.136 44.064C492.407 46.7435 494.021 50.082 494.724 51.4828L496.001 54.0296L496.972 51.7148C497.506 50.4416 498.586 47.8339 499.372 45.9199C502.074 39.3394 505.092 32.8739 505.586 32.6099C505.758 32.5182 505.899 32.5356 505.998 32.6606C506.081 32.7652 506.23 34.3471 506.33 36.176C506.668 42.3757 507.678 52.7203 508.275 56.1014C508.603 57.9594 509.142 58.7051 510.39 59.028C510.7 59.1082 510.935 59.2763 510.967 59.4405C511.018 59.7034 510.815 59.7118 507.017 59.6054C504.815 59.5438 502.962 59.4627 502.898 59.4254C502.595 59.2486 502.837 58.9359 503.351 58.8395C503.69 58.7762 504.13 58.5241 504.436 58.2191C504.891 57.7643 504.95 57.6099 504.95 56.8713C504.95 56.4125 504.812 55.031 504.643 53.8012C504.37 51.8207 503.401 42.5588 503.401 41.9337C503.401 41.801 503.357 41.7368 503.302 41.791C503.155 41.9383 501.69 45.2927 500.283 48.7039C499.598 50.3627 498.302 53.446 497.403 55.5557C495.953 58.9555 495.73 59.3863 495.44 59.345C495.185 59.3087 494.721 58.5268 493.303 55.7412C492.307 53.7847 490.796 50.6875 489.945 48.8586C487.425 43.4426 486.205 40.9208 486.138 40.988C486.103 41.0228 485.858 43.382 485.592 46.2309C485.327 49.0797 484.962 52.5242 484.782 53.8852C484.602 55.2463 484.45 56.609 484.444 56.9134C484.425 57.8464 485.181 58.6815 486.238 58.8975C486.833 59.019 486.981 59.3375 486.489 59.4377C486.292 59.478 484.726 59.5506 483.01 59.5991C480.286 59.6761 479.879 59.6569 479.798 59.4483Z" fill="#F1ECE2"/>
</svg>
