<svg width="88" height="71" viewBox="0 0 88 71" fill="#1C342C" xmlns="http://www.w3.org/2000/svg">
<path d="M42.1044 0.202827C41.7845 0.287342 41.1953 0.591595 40.7913 0.862041C39.5455 1.74099 35.4377 5.08778 31.3973 8.51907C30.9428 8.92474 29.9158 9.76989 29.1246 10.3953C28.3333 11.0376 26.9697 12.1701 26.0943 12.9138C25.2189 13.6745 24.3098 14.4351 24.0909 14.621C23.8552 14.807 23.5522 15.0774 23.4175 15.2126C23.266 15.3479 22.0539 16.3451 20.7071 17.4269C19.3603 18.5256 18.1145 19.5398 17.9293 19.7088C17.7441 19.8948 17.1044 20.4526 16.4983 20.9596C15.8923 21.4667 15.3704 21.9231 15.3199 21.9738C15.2694 22.0245 14.7812 22.4302 14.2256 22.9035C13.67 23.3599 13.1818 23.7824 13.1313 23.8331C13.0808 23.8839 12.4748 24.3909 11.7845 24.9318C9.83166 26.4869 7.42425 28.4815 6.07745 29.7323C5.84176 29.9351 5.20203 30.476 4.64647 30.9155C2.30641 32.7748 0.40405 34.3806 0.185195 34.6848C0.0336794 34.9046 -0.0168257 35.344 0.0336794 35.9864C0.117854 37.1358 0.67341 37.9471 2.97981 40.3473C4.66331 42.1052 5.03368 42.2404 6.09429 41.5136C6.56567 41.2094 11.9529 36.8146 13.6869 35.3271C13.8889 35.1581 14.6633 34.5158 15.404 33.8904C16.1448 33.265 16.9865 32.5551 17.2559 32.3015C17.5421 32.0649 18.4344 31.2873 19.2761 30.5943C20.101 29.9013 20.9428 29.1914 21.128 29.0054C21.3131 28.8364 21.8687 28.3969 22.3569 28.042C22.8283 27.6701 23.2323 27.3151 23.2323 27.2475C23.2323 27.1799 23.4849 26.9771 23.7879 26.7912C24.0741 26.6221 24.7812 26.0474 25.3367 25.5234C25.8923 24.9994 26.7003 24.3064 27.1549 24.0022C27.5926 23.6979 27.9461 23.3937 27.9461 23.3261C27.9461 23.2753 28.1987 23.0894 28.5017 22.9204C28.7879 22.7514 29.2256 22.4133 29.4613 22.1597C29.697 21.9062 30.2525 21.416 30.7071 21.0442C31.1785 20.6723 31.7845 20.1483 32.0539 19.8948C32.3401 19.6243 32.9966 19.1003 33.5017 18.7115C34.0067 18.3397 35.303 17.2579 36.3636 16.3282C37.4243 15.3817 38.9057 14.1647 39.6465 13.6069C40.3872 13.066 41.0269 12.5758 41.0774 12.5251C41.128 12.4575 41.7845 11.8659 42.5589 11.1728C43.7879 10.091 43.9899 9.97273 44.2424 10.1587C44.596 10.4291 46.8519 12.3898 46.9697 12.5251C47.0202 12.5758 47.7778 13.2012 48.6532 13.9111C49.5286 14.6379 50.6397 15.5507 51.0943 15.9733C51.5657 16.3789 52.6936 17.3424 53.6364 18.1199C54.5623 18.8975 56.2626 20.3173 57.4243 21.2639C58.569 22.2274 59.6296 23.1063 59.7643 23.2077C59.899 23.3261 61.1448 24.3571 62.5421 25.5234C67.4243 29.6139 68.1818 30.2732 68.5354 30.5605C68.7374 30.7126 69.0236 30.9662 69.1751 31.1183C69.3266 31.2535 70.2357 32.0142 71.2121 32.7917C72.1886 33.5692 73.0135 34.2454 73.064 34.2961C73.1145 34.3637 73.8384 34.9722 74.6633 35.6652C75.5051 36.3582 76.2626 37.0005 76.3636 37.102C76.4647 37.2034 77.037 37.6597 77.6094 38.1161C78.1987 38.5894 78.8552 39.1472 79.0909 39.3669C79.798 40.0431 81.9529 41.5812 82.4411 41.7672C83.2155 42.0545 83.7037 41.7841 85.2694 40.1445C87.2727 38.0654 87.8956 37.0174 87.8956 35.7666C87.8956 34.7693 88.0303 34.9553 86.0438 33.1636C85.8081 32.9438 85.0674 32.3522 84.394 31.8451C83.7374 31.338 83.1313 30.8648 83.0808 30.7633C83.0303 30.6788 82.0539 29.8675 80.9259 28.9547C79.798 28.0589 78.569 27.0278 78.1987 26.6728C77.8283 26.3179 77.1212 25.7432 76.6498 25.3882C76.1616 25.0502 75.7239 24.6107 75.6902 24.4247C75.6397 24.2388 75.5724 18.9144 75.5051 12.5927C75.4041 -0.304264 75.5051 0.642303 74.1414 0.338051C73.2323 0.118313 63.5354 0.135216 62.761 0.338051C62.4243 0.439468 61.9697 0.659206 61.7509 0.828236C61.3636 1.14939 61.3636 1.14939 61.2626 6.71046C61.1953 9.75299 61.1448 12.2715 61.128 12.3053C61.0774 12.4237 57.1044 9.07687 53.4344 5.8315C50.0673 2.82278 46.6667 0.659206 44.6128 0.185925C43.6869 -0.0338135 42.862 -0.0169106 42.1044 0.202827Z" fill="black"/>
<path d="M42.9798 14.9085C42.6263 15.2127 42.1886 15.6015 42.0034 15.7705C41.8182 15.9395 40.9428 16.6664 40.0673 17.3763C39.1919 18.0862 37.8956 19.168 37.2054 19.7934C36.5152 20.4019 34.9158 21.7203 33.67 22.7345C32.4243 23.7318 31.0269 24.8812 30.5556 25.2531C30.101 25.6418 29.0404 26.5208 28.1987 27.2138C27.3737 27.9068 26.6498 28.5153 26.5993 28.566C26.5488 28.6167 26.1448 28.9717 25.6734 29.3267C25.2189 29.6985 24.6465 30.1718 24.4108 30.3577C22.963 31.6086 16.4983 36.9668 15.2525 37.9472C14.4445 38.5895 13.4512 39.4177 13.064 39.7558L12.3737 40.3812L12.3906 54.0388C12.3906 61.5437 12.4579 67.9837 12.5253 68.3387C12.6936 69.2007 13.468 69.9106 14.6296 70.2825C15.4882 70.536 16.6162 70.5699 26.3468 70.5699H37.1212L37.1717 60.2422L37.2054 49.8976L38.5017 49.7792C39.798 49.6609 49.8148 49.7116 50.3872 49.8299C50.6566 49.8976 50.6734 50.5399 50.6734 60.1914C50.6734 66.1582 50.7407 70.5022 50.8249 70.553C50.9091 70.6206 55.9091 70.6713 61.936 70.6713L72.8956 70.7051L73.67 70.2149C74.1077 69.9444 74.6633 69.4205 74.9327 69.0486L75.4209 68.3725V54.3599L75.4377 40.3474L75.0168 39.9924C74.4445 39.4853 67.1717 33.4341 66.6835 33.0453C66.4647 32.8594 65.9596 32.4199 65.5724 32.0649C65.1852 31.7269 64.7812 31.4395 64.6801 31.4395C64.5791 31.4395 64.3939 31.3043 64.2761 31.1353C63.9899 30.7465 61.9192 29.0055 57.4748 25.4221C54.0067 22.6162 52.5926 21.4499 51.0101 20.0131C50.5892 19.6413 49.8317 18.9821 49.3098 18.5764C46.9529 16.7002 45.1684 15.2296 44.798 14.807C44.2593 14.2154 43.7542 14.2492 42.9798 14.9085Z" fill="black"/>
</svg>
