<?xml version="1.0" encoding="UTF-8" standalone="no"?>
<svg
   width="87"
   height="71"
   viewBox="0 0 87 71"
   fill="#1C342C"
   version="1.1"
   id="svg4"
   sodipodi:docname="civil.svg"
   inkscape:version="1.3.2 (091e20e, 2023-11-25)"
   xmlns:inkscape="http://www.inkscape.org/namespaces/inkscape"
   xmlns:sodipodi="http://sodipodi.sourceforge.net/DTD/sodipodi-0.dtd"
   xmlns="http://www.w3.org/2000/svg"
   xmlns:svg="http://www.w3.org/2000/svg">
  <defs
     id="defs4" />
  <sodipodi:namedview
     id="namedview4"
     pagecolor="#ffffff"
     bordercolor="#000000"
     borderopacity="0.25"
     inkscape:showpageshadow="2"
     inkscape:pageopacity="0.0"
     inkscape:pagecheckerboard="0"
     inkscape:deskcolor="#d1d1d1"
     inkscape:zoom="2.7497621"
     inkscape:cx="44.185641"
     inkscape:cy="34.912111"
     inkscape:window-width="1728"
     inkscape:window-height="969"
     inkscape:window-x="0"
     inkscape:window-y="38"
     inkscape:window-maximized="1"
     inkscape:current-layer="svg4" />
  <path
     d="M42.2559 1.20012C39.2761 4.68212 38.8384 6.50764 40.6566 7.94439C41.0606 8.26555 41.3973 8.5867 41.4141 8.63741C41.4141 8.70502 41.2121 8.80644 40.9596 8.87405C40.6902 8.92476 40.1347 9.21211 39.7138 9.48256L38.9394 9.97274L37.6094 9.31353C35.3872 8.19794 34.6128 8.04581 31.5657 8.04581C29.1751 8.04581 28.67 8.09652 27.1044 8.51909C26.1279 8.77263 24.8822 9.1614 24.3266 9.38114C23.771 9.60088 22.4242 10.1249 21.3468 10.5474C20.2525 10.97 19.2593 11.325 19.1077 11.325C18.9562 11.325 18.5522 11.1729 18.1818 10.9869C16.5657 10.1587 14.3434 10.8348 13.5354 12.373C12.9966 13.4209 13.569 14.8408 14.8148 15.5338C16.2121 16.3113 18.4007 15.9733 19.2256 14.8577C19.697 14.2154 20.2862 13.9111 23.1145 12.8293C30.0337 10.1925 33.1818 9.95584 36.3805 11.8828C37.2727 12.4237 37.2896 12.4406 37.4916 13.5562C37.9798 16.2268 39.3266 17.4946 42.2222 18.0016C44.5455 18.4073 47.0034 17.6636 48.1818 16.2099C48.8047 15.4324 49.3266 14.0295 49.3266 13.0829C49.3266 12.5927 49.4276 12.4744 50.303 11.9335C52.1044 10.8348 52.7273 10.6489 54.5118 10.6489C57.3737 10.6489 59.2929 11.1052 63.3838 12.7617C66.4815 14.0295 66.8519 14.2154 67.5253 14.9084C68.2492 15.6521 69.7306 16.1592 70.6734 15.9733C72.7104 15.5845 73.7374 14.1647 73.2155 12.4744C73.0135 11.8828 72.8283 11.6461 72.0707 11.2067C70.7576 10.4122 69.9495 10.3446 68.7879 10.8855C68.2828 11.1221 67.7441 11.325 67.5926 11.325C67.4242 11.325 66.6498 11.0714 65.8417 10.7503C60.2694 8.51909 58.4512 8.06271 55.303 8.06271C52.1044 8.04581 50.1347 8.51909 48.3165 9.7192C47.9125 9.98965 47.862 9.97274 46.9024 9.39804C46.3468 9.05999 45.7576 8.78954 45.5892 8.78954C45.202 8.78954 45.202 8.50219 45.5892 8.38387C45.7576 8.31626 46.1448 8.012 46.4646 7.69085C46.9529 7.18376 47.037 6.96402 47.1044 6.10197C47.1717 5.20611 47.1212 4.98637 46.6498 4.15813C46.0606 3.14395 43.8889 0.338066 43.5354 0.135231C43.367 0.0338135 42.9798 0.371872 42.2559 1.20012Z"
     fill="#1C342C"
     id="path1" />
  <path
     d="M15.9933 18.2891C15.3199 18.6271 15.1515 18.8469 14.4613 20.216C14.0404 21.078 13.367 22.5148 12.963 23.4276C12.3737 24.7629 8.93939 32.234 7.82828 34.5666C7.6936 34.837 7.07071 36.2062 6.43098 37.6091C5.79124 38.9952 4.93266 40.8545 4.52862 41.6996L3.78788 43.2716H2.00337C1.02693 43.2716 0.185184 43.3223 0.117844 43.373C-0.387206 43.897 3.08081 48.0551 5.28619 49.5764C9.17508 52.2302 14.5455 53.3796 19.6128 52.6527C24.0404 52.0273 27.3906 50.4047 30.303 47.4804C31.835 45.9423 32.7609 44.6407 32.9293 43.8125L33.0471 43.2716H31.2626H29.4949L28.9899 42.2067C27.1044 38.2852 26.1111 36.1386 24.5286 32.7073C23.5354 30.5268 22.7441 28.8196 21.6835 26.5377C21.3131 25.7433 20.7912 24.6446 20.5387 24.0868C18.3838 19.4554 17.862 18.4919 17.3737 18.2045C16.7508 17.8496 16.8855 17.8496 15.9933 18.2891ZM17.0034 23.8501C17.0034 23.9177 17.6431 25.3376 18.4175 26.9941C19.1919 28.6506 20.1515 30.7296 20.5387 31.6086C20.9428 32.4875 21.8519 34.4652 22.5926 35.9864C23.3165 37.5077 23.9057 38.7754 23.9057 38.8092C23.9057 38.843 24.1751 39.4346 24.4949 40.1277C25.0673 41.3447 25.7576 43.035 25.7576 43.1871C25.7576 43.2378 21.633 43.2716 16.5825 43.2716C10.3367 43.2716 7.40741 43.2209 7.40741 43.1026C7.40741 43.0012 7.6431 42.4096 7.92929 41.7842C8.21549 41.1587 8.68687 40.1615 8.95623 39.553C10.3367 36.5949 13.4007 30.0366 14.596 27.5519C15.3367 26.0137 16.0774 24.4417 16.2458 24.053C16.4983 23.4952 16.6162 23.3768 16.7845 23.5121C16.9024 23.6304 17.0034 23.7656 17.0034 23.8501Z"
     fill="#1C342C"
     id="path2" />
  <path
     d="M69.2761 18.3397C68.5859 18.6947 68.3165 19.1173 67.5421 20.9766C67.1717 21.8555 66.229 23.9008 65.4377 25.5235C64.0404 28.397 62.9125 30.8817 61.9529 33.1298C61.7003 33.7383 60.6229 36.0878 59.5454 38.3697C58.4848 40.6516 57.5589 42.68 57.5084 42.8828C57.3906 43.2547 57.3064 43.2716 55.5724 43.2716C54.5791 43.2716 53.7205 43.3223 53.6532 43.373C53.4848 43.542 53.9226 44.4548 54.7811 45.6718C55.5892 46.8381 57.7609 48.9172 59.0909 49.813C61.7003 51.554 66.4983 52.9062 70.0842 52.9062C71.734 52.9062 74.2424 52.5682 75.7576 52.1287C77.5589 51.6216 80.5387 50.2018 81.734 49.3059C83.5353 47.9537 85.404 45.9422 86.0943 44.6238C86.7003 43.4744 86.7003 43.4744 86.3131 43.373C86.1111 43.3223 85.2694 43.2716 84.4276 43.2716L82.9125 43.2547L82.4579 42.2912C82.2054 41.7672 81.5657 40.415 81.0438 39.2994C80.5219 38.1838 79.8821 36.8146 79.6296 36.2568C78.67 34.2116 75.9259 28.1772 75.9259 28.1265C75.9259 28.0927 75.4209 27.0109 74.8148 25.7432C73.0303 22.0077 71.9529 19.7258 71.7172 19.1342C71.3973 18.3059 70.1347 17.9003 69.2761 18.3397ZM70.6229 24.4248C70.7912 24.8812 71.5151 26.4531 72.2222 27.8899C72.9461 29.3266 73.7879 31.0845 74.0741 31.7776C74.3771 32.4706 75 33.8397 75.4377 34.7863C75.8923 35.7498 76.2626 36.5611 76.2626 36.5949C76.2626 36.6118 76.9529 38.0486 77.7778 39.7896C78.6195 41.5137 79.2929 43.018 79.2929 43.1025C79.2929 43.2209 76.0943 43.2716 70.1178 43.2716C59.7643 43.2716 60.5892 43.4068 61.431 41.8686C61.7003 41.3953 62.7273 39.198 63.6869 37.0175C65.2694 33.4172 66.4646 30.8479 68.0976 27.4673C68.4175 26.8081 68.9731 25.608 69.3603 24.7798C69.7306 23.9346 70.101 23.343 70.1852 23.4275C70.2525 23.512 70.4545 23.9515 70.6229 24.4248Z"
     fill="#1C342C"
     id="path3" />
  <path
     d="M37.138 22.1767C37.3401 23.2754 38.1145 24.3234 39.5118 25.4728C39.8822 25.7771 39.899 25.8785 39.9832 30.2563C40.0337 32.7242 40.0168 39.9248 39.9495 46.2803L39.8148 57.825L38.9731 58.18C36.0774 59.397 34.2256 61.4761 33.5017 64.3327L33.3333 65.0257L29.596 65.1271C25.7071 65.2116 24.9832 65.33 24.2761 65.9892C23.5522 66.6315 23.4007 67.1555 23.4007 68.8796V70.4854H43.3502H63.2997V68.9641C63.2997 67.24 63.064 66.4963 62.3737 65.9554C61.6162 65.3638 60.7576 65.2285 56.936 65.1102L53.3165 64.9919L53.0808 64.0791C52.6431 62.3381 52.037 61.2394 50.9428 60.2084C50.0505 59.3801 48.1818 58.2476 47.1044 57.9096C46.8182 57.825 46.8013 57.1658 46.8013 47.1931C46.8013 41.3447 46.7508 34.1778 46.7003 31.2536L46.5825 25.9461L47.6094 25.1517C48.7037 24.3065 49.3939 23.2923 49.5623 22.2613L49.6801 21.6358H43.367H37.0539L37.138 22.1767Z"
     fill="#1C342C"
     id="path4" />
</svg>
