<svg width="85" height="71" viewBox="0 0 85 71" fill="#1C342C" xmlns="http://www.w3.org/2000/svg">
<path d="M67.3401 0.879059C67.138 1.09879 66.8182 1.55517 66.633 1.91013C66.3636 2.45103 66.2458 2.55244 65.9428 2.46793C64.0236 1.91013 63.5017 1.82561 62.6263 1.94394C61.5825 2.07916 61.0774 2.07916 59.8316 1.92703C58.2155 1.7411 58.0303 1.94394 53.6027 8.6206C52.2222 10.7166 50.4882 13.2858 49.7475 14.3507C49.0067 15.3987 48.1818 16.5819 47.9125 16.9707C47.037 18.2215 45.2862 20.2498 44.6128 20.7907C42.9461 22.1261 40.9933 22.5148 38.3838 22.0753C36.8182 21.788 30.2694 20.2667 27.7778 19.6075C24.4276 18.6948 18.1145 17.2411 17.5421 17.2411C17.1212 17.2411 16.633 17.4101 16.1448 17.7144C15.6566 18.0355 15.0673 18.2384 14.4444 18.306C12.8788 18.4581 11.7677 19.1849 10.8417 20.6555L10.4377 21.2809L9.36026 20.7738C7.81144 20.047 7.89562 19.9794 5.89225 23.7487C5.48821 24.4925 4.07407 27.1462 2.7441 29.631C1.43097 32.1157 0.303023 34.33 0.252518 34.5328C0.202013 34.7356 0.252518 35.023 0.370363 35.192C0.572384 35.4456 4.41077 37.6599 5.08417 37.9134C5.3872 38.0148 5.18518 38.6233 8.50168 28.3463C10.5892 21.9232 10.3535 22.2444 12.3569 22.8022C13.4007 23.0895 13.5017 23.1064 13.1481 22.8529C12.0202 22.0753 12.037 22.1261 12.6263 21.3316C13.4512 20.1653 14.7643 19.7596 15.1178 20.5372C15.404 21.1457 15.3704 21.6021 15.0168 22.1091C14.8485 22.3627 14.5791 22.8867 14.3939 23.2755C14.2256 23.6811 14.0909 24.0023 14.0741 24.0023C14.0572 24.0023 13.5353 23.8502 12.9125 23.6811C12.0539 23.4276 11.6667 23.3938 11.3805 23.5121C10.9764 23.698 10.8081 24.1206 8.7037 30.6789C8.01346 32.8087 7.05387 35.8005 6.56565 37.3049C5.60605 40.2967 5.57238 40.7869 6.36363 41.1081C7.17171 41.4292 19.2929 45.3507 20.0505 45.5197C20.9764 45.7564 20.9428 45.824 23.7374 37.1866C26.633 28.2111 26.4815 28.752 26.1953 28.3125C26.0269 28.0759 25.5219 27.7885 24.8316 27.5519C24.2256 27.3491 23.7374 27.1293 23.7374 27.0786C23.7374 26.9603 24.0404 25.7771 24.1582 25.4052C24.2256 25.2024 25.5219 25.625 30.4714 27.4674C31.633 27.89 33.2997 28.4985 34.1751 28.8196C37.3232 29.9352 37.2896 29.9183 37.6768 31.1353C39.0236 35.2596 39.3771 37.3725 39.6296 43.1026C39.798 46.7198 39.9158 47.9368 40.1515 48.5961C40.4209 49.3736 40.4377 49.6779 40.2525 52.2302C39.7306 59.3294 38.9562 63.065 37.9293 63.3185C36.7677 63.6228 33.0135 62.7438 29.8653 61.4592C28.9226 61.0704 28.0976 60.8507 27.6263 60.8507C25.9259 60.8507 24.5623 62.1522 24.4444 63.9101C24.3098 65.7018 25.2862 66.7498 28.4007 68.1359C29.0236 68.4232 29.7811 68.7444 30.0505 68.8796C31.9192 69.7078 35.0505 70.4854 36.9529 70.6037C42.2391 70.891 45.1515 68.4232 47.3401 61.7804C47.4242 61.493 47.8619 59.8365 48.3165 58.0617L49.1246 54.8502L49.6801 54.7318C49.9832 54.6811 50.303 54.6642 50.3872 54.7149C50.5724 54.8333 51.8855 57.6391 52.2896 58.7716L52.6094 59.6675L51.8855 60.2929C50.5555 61.5099 50.3199 63.0143 51.1953 64.7891C52.9125 68.2035 55.1515 69.7924 58.0135 69.6064C60.1178 69.4712 61.2626 68.0852 61.4478 65.4314C61.7508 61.0704 60.6061 55.1375 58.165 48.5961C57.8283 47.6833 57.7104 47.0241 57.6599 45.638C57.5421 42.7138 57.2391 40.3305 56.5657 36.8485C55.6734 32.3185 54.697 29.2422 52.7104 24.6277L52.3569 23.8163L53.266 22.0922C53.7542 21.1457 54.6465 19.4554 55.2188 18.3398C57.0707 14.8071 57.7441 13.7084 58.0135 13.8098C58.367 13.945 58.3165 14.0633 57.5758 15.0099C56.5151 16.3452 56.4646 16.2438 59.4276 18.1708C59.7475 18.3905 61.5657 19.4892 63.468 20.6386C65.3704 21.7711 67.963 23.3431 69.2256 24.1037C72.0202 25.794 72.4579 26.0306 72.8451 26.0306C73.266 26.0306 74.3603 24.8812 78.0303 20.5541C78.5017 19.9963 79.7643 18.5257 80.8586 17.2749C82.1044 15.8382 82.8283 14.8747 82.8283 14.6381C82.8283 14.1648 82.3569 13.7084 81.0606 12.9478C78.1481 11.2406 77.5589 10.9025 76.0943 9.97284C75.2188 9.41504 74.1582 8.77273 73.7374 8.53609C73.3165 8.29945 71.734 7.35288 70.2188 6.42322C68.4175 5.32452 67.2727 4.73293 66.9697 4.73293C66.5993 4.73293 66.2963 4.93576 65.7071 5.57807C65.2862 6.03445 64.8653 6.42322 64.7811 6.42322C64.697 6.42322 64.0741 6.18658 63.3838 5.88232L62.1212 5.34143V4.63151C62.1212 3.66804 62.3906 3.48211 63.6195 3.63423C64.9495 3.78636 65.2862 4.0399 65.0168 4.63151C64.6296 5.49355 64.8148 5.47665 65.7071 4.5977C66.33 3.97229 66.7172 3.71875 67.0539 3.71875C67.3232 3.71875 68.3502 4.22584 69.5791 4.96957C70.7071 5.64568 73.6364 7.42049 76.0943 8.90795C78.5522 10.3954 80.8081 11.7476 81.1111 11.8998L81.6498 12.1871L82.0707 11.4603C83.5353 8.97556 84.2929 7.505 84.2256 7.31907C84.1077 7.01482 83.2323 6.57535 81.1784 5.764C80.2862 5.40904 77.9125 4.44557 75.9259 3.63423C70.2188 1.30163 68.1818 0.507195 67.9293 0.507195C67.7946 0.507195 67.5252 0.676224 67.3401 0.879059ZM62.3737 7.4543C62.9293 7.65713 63.2997 7.89377 63.2997 8.06281C63.2997 8.28254 62.6431 9.09388 60.1683 11.9674C59.6633 12.559 59.6633 12.559 59.2087 12.2547C58.9562 12.1026 58.7542 11.9167 58.7542 11.866C58.7542 11.7476 60.9596 7.57262 61.1616 7.30217C61.3636 7.04863 61.2626 7.03172 62.3737 7.4543ZM18.9731 23.2247C19.8821 23.5459 20.9933 23.9516 21.4478 24.1544C22.2559 24.5094 22.2559 24.5263 22.1549 25.1517C21.9529 26.1997 21.8687 26.3687 21.532 26.3687C21.1279 26.3687 16.4815 24.8643 16.2626 24.6784C15.9933 24.4249 16.8013 22.65 17.1717 22.65C17.2559 22.65 18.0808 22.9036 18.9731 23.2247Z" fill="#1C342C"/>
<path d="M36.0269 2.68769C32.862 3.71877 30.3535 6.42324 29.798 9.44887C28.9057 14.2155 31.5993 18.6948 36.1784 20.0639C37.3064 20.402 39.798 20.4358 40.9091 20.1315C43.367 19.4554 45.5219 17.7144 46.5993 15.517C47.4242 13.8267 47.6431 12.9985 47.6431 11.3251C47.6431 9.71931 47.4242 8.84036 46.7172 7.336C45.6397 5.08791 43.1145 3.04265 40.7744 2.55247C39.4276 2.26512 37.1044 2.33273 36.0269 2.68769Z" fill="#1C342C"/>
</svg>
