<svg width="100" height="64" viewBox="0 0 100 64" fill="#1C342C" xmlns="http://www.w3.org/2000/svg">
<path d="M82.6496 0.819286C82.3875 0.938786 81.4074 1.51352 80.1709 2.27604C79.9031 2.44106 79.2251 2.85647 78.661 3.20359C76.6553 4.43273 76.3647 4.62051 76.1595 4.81968C75.9658 5.01315 75.9544 5.04729 75.9544 5.38303C75.9544 5.75291 76.0741 6.04881 76.6781 7.16983C76.792 7.37469 77.0655 7.89821 77.2934 8.33638C77.8177 9.34359 77.9715 9.62242 78.2507 10.0435C78.5014 10.4191 79.0142 11.3296 81.3789 15.5917C83.5043 19.4157 85.6752 23.2624 86.5185 24.6964C88.0741 27.3539 89.0655 29.1293 90.2849 31.4681C91.1852 33.1923 91.5442 33.8353 91.698 33.9776C91.7835 34.0572 91.8974 34.0857 92.131 34.0857C92.5299 34.0857 92.8661 33.9207 94.0741 33.1411C95.1681 32.4298 97.208 31.1779 98.2336 30.5861C99.1168 30.0796 99.6866 29.687 99.7322 29.5675C99.7721 29.4707 99.6467 29.0098 99.4758 28.6229C99.3561 28.344 98.2393 26.1134 98.0399 25.7492C97.5726 24.8956 97.3903 24.5769 97.2251 24.3152C97.1225 24.1502 97.037 24.0079 97.037 23.9908C97.037 23.9738 96.8946 23.7234 96.7179 23.4332C96.3305 22.7958 95.6125 21.561 95.6125 21.5325C95.6125 21.5212 95.51 21.3448 95.3846 21.1399C95.2593 20.935 95.1567 20.753 95.1567 20.7416C95.1567 20.7245 94.98 20.4001 94.7578 20.0246C94.5413 19.6433 94.359 19.3246 94.359 19.3133C94.359 19.3019 94.2621 19.1312 94.1424 18.9377C94.0228 18.7385 93.9088 18.5394 93.886 18.4938C93.8632 18.4483 93.7664 18.2776 93.6752 18.124C93.5783 17.9646 93.4758 17.7882 93.4473 17.7256C93.4131 17.663 93.3048 17.4582 93.2023 17.2704C93.094 17.0826 92.9231 16.7639 92.8091 16.5591C92.4672 15.9331 92.2963 15.6315 92.1538 15.4096C92.0855 15.2901 92.0228 15.182 92.0228 15.1649C92.0228 15.1479 91.9601 15.0397 91.886 14.9202C91.812 14.8064 91.6695 14.556 91.5669 14.3683C91.4644 14.1805 91.3162 13.913 91.2422 13.7708C91.1624 13.6285 91.0655 13.4749 91.0199 13.4236C90.9743 13.3781 90.9402 13.3212 90.9402 13.2985C90.9402 13.2814 90.8034 13.0367 90.6382 12.7636C90.4729 12.4904 90.3191 12.223 90.2963 12.1774C90.2735 12.1319 90.2336 12.0522 90.1994 12.0067C90.0741 11.8132 89.7037 11.1645 89.584 10.9255C89.51 10.7833 89.4302 10.6296 89.4017 10.5841C89.2137 10.2825 88.8889 9.72485 88.8889 9.70209C88.8889 9.67933 88.5641 9.12166 88.3761 8.82007C88.3476 8.77454 88.2621 8.6209 88.1937 8.47864C88.1196 8.33638 87.9658 8.06324 87.8518 7.86976C87.7322 7.6706 87.6353 7.49988 87.6353 7.48281C87.6353 7.46005 87.3162 6.91376 87.1225 6.60079C87.094 6.55527 87.0142 6.40162 86.9402 6.25936C86.8718 6.1171 86.7692 5.9407 86.7179 5.86103C86.6667 5.78136 86.5527 5.58789 86.4729 5.43425C86.3875 5.27491 86.2963 5.10989 86.2678 5.06437C85.8575 4.39289 85.4701 3.74987 85.4701 3.7328C85.4701 3.71004 84.8718 2.62885 84.7863 2.50366C84.7521 2.45814 84.7122 2.37847 84.6894 2.33295C84.6667 2.28742 84.5584 2.09395 84.4501 1.90616C84.3362 1.71838 84.188 1.44524 84.114 1.29728C84.0456 1.15502 83.9031 0.955856 83.8063 0.859119C83.641 0.699787 83.5897 0.682716 83.282 0.688404C83.0484 0.688404 82.8433 0.733929 82.6496 0.819286Z" fill="#1C342C"/>
<path d="M16.6097 0.813637C16.4501 0.887611 16.1994 1.16076 16.1083 1.36561C16.0855 1.41114 16.0171 1.52494 15.9544 1.62168C15.8917 1.71273 15.8234 1.83223 15.8006 1.87775C15.7835 1.92327 15.7094 2.05416 15.641 2.16228C15.5726 2.27039 15.396 2.58906 15.2479 2.87358C15.094 3.15241 14.9516 3.40849 14.9288 3.44263C14.906 3.47108 14.7749 3.70439 14.6439 3.95477C14.5128 4.20515 14.3818 4.43846 14.3533 4.4726C14.3248 4.50674 14.1994 4.73436 14.0684 4.98474C13.453 6.15129 13.2023 6.6179 12.661 7.57959C12.5926 7.69909 12.4444 7.96654 12.3305 8.17709C12.2165 8.38763 12.0798 8.62663 12.0285 8.7063C11.9772 8.78597 11.9088 8.89977 11.8689 8.96237C11.8348 9.02497 11.6467 9.32656 11.4587 9.63384C11.265 9.93544 11.1111 10.2029 11.1111 10.2143C11.1111 10.2313 11.0484 10.3395 10.9801 10.459C10.906 10.5728 10.7521 10.8345 10.6439 11.0394C10.3305 11.6198 10.1368 11.9612 9.9886 12.1889C9.92023 12.3084 9.85755 12.4165 9.85755 12.4335C9.85755 12.4449 9.76068 12.6213 9.64103 12.8148C9.52137 13.014 9.40741 13.2131 9.38462 13.2587C9.36182 13.3042 9.28775 13.4351 9.22507 13.5432C9.1567 13.6513 9.01425 13.9074 8.90598 14.1065C8.79772 14.3057 8.65527 14.5504 8.59829 14.6471C8.54131 14.7439 8.47293 14.8634 8.45014 14.9089C8.42735 14.9544 8.31339 15.1536 8.19373 15.3528C8.07407 15.5462 7.97721 15.7226 7.97721 15.734C7.97721 15.7511 7.91453 15.8592 7.84615 15.9787C7.69801 16.2063 7.50427 16.5477 7.19088 17.1282C7.08262 17.333 6.92878 17.5948 6.8547 17.7086C6.78633 17.8281 6.72365 17.9362 6.72365 17.9533C6.72365 17.9704 6.66097 18.0785 6.59259 18.198C6.45014 18.4142 6.32479 18.6475 5.68661 19.8311C5.48148 20.2067 5.25926 20.605 5.19658 20.7132C5.12821 20.8213 5.05413 20.9522 5.03134 20.9977C5.00855 21.0432 4.89459 21.2424 4.77493 21.4415C4.65527 21.635 4.55841 21.8057 4.55841 21.8228C4.55841 21.8399 4.2735 22.3122 3.93162 22.8755C3.58405 23.4389 3.30484 23.9169 3.30484 23.9283C3.30484 23.9453 3.24217 24.0535 3.17379 24.173C3.09972 24.2868 2.87749 24.6908 2.67806 25.0664C2.48433 25.4419 2.302 25.772 2.2792 25.8061C2.08547 26.0565 1.08262 28.0709 0.854702 28.6627C0.655271 29.1863 0.632479 29.3854 0.740741 29.5903C0.854702 29.8065 0.957266 29.8862 1.68091 30.3699C3.45869 31.5535 5.52707 32.7769 6.8661 33.4484C7.82906 33.9264 7.94872 33.9719 8.32479 33.9719C8.62108 33.9719 8.66667 33.9549 8.76353 33.8126C8.82051 33.7272 9.20228 33.0159 9.60114 32.2363C10.8832 29.7268 11.2479 29.0781 12.8205 26.4605C13.1909 25.8516 14.1197 24.2185 14.8946 22.83C15.6638 21.4472 16.5128 19.9336 16.7749 19.467C17.9943 17.3216 20.4444 12.9457 21.0199 11.8759C21.6125 10.7776 22.0171 10.0777 23.2479 7.99499C23.7322 7.18126 24.2165 6.2594 24.2165 6.15697C24.2165 6.12852 24.2564 6.02609 24.302 5.94074C24.3476 5.844 24.3875 5.62207 24.3875 5.42291C24.3875 4.888 24.3989 4.89939 22.3362 3.59058C19.8746 2.03708 18.3476 1.16076 17.6467 0.904686C17.2422 0.756733 16.8205 0.7169 16.6097 0.813637Z" fill="#1C342C"/>
<path d="M51.0256 8.34781C49.1225 8.39903 47.3276 8.55836 45.641 8.82012C45.4359 8.85426 45.1567 8.8941 45.0142 8.91117C44.0513 9.02498 42.3248 9.37778 41.3675 9.66231C40.6438 9.87285 40.1766 10.0663 39.829 10.3053C39.4758 10.5386 39.3219 10.715 38.7578 11.5117C38.547 11.8133 38.0513 12.4734 37.6581 12.9855C36.7065 14.2204 35.9658 15.2617 34.7692 17.0428C34.2222 17.8566 33.6524 18.6646 33.4985 18.8353C33.037 19.3759 32.4957 20.2466 31.9715 21.2822C31.1909 22.8414 30.8433 24.0649 30.9914 24.7249C31.1168 25.2883 31.5156 25.4647 32.678 25.459C35.3618 25.4476 38.2336 24.0535 40.9344 21.4529C41.6467 20.7644 42.0399 20.2921 42.678 19.3475C43.4074 18.2777 43.8062 17.9818 45.3561 17.3672C47.0541 16.6957 48.6325 16.3088 49.208 16.4169C49.3219 16.434 49.698 16.6104 50.0456 16.7981C50.9003 17.2648 52.0399 17.8679 54.1253 18.9605C58.0456 21.0091 59.8632 22.096 64.9572 25.4363C70.8433 29.2887 73.9715 31.5706 78.3191 35.1726C79.7379 36.3505 81.1453 37.4431 81.2421 37.4431C81.3789 37.4431 82.1367 37.0675 82.6268 36.7546C83.4758 36.2083 84.1766 35.5994 86.0114 33.8183C87.7322 32.1453 87.8062 32.0656 87.8062 31.8608C87.8062 31.4511 86.8091 29.5789 83.7322 24.2128C82.6951 22.3975 81.527 20.3376 81.1396 19.632C80.3703 18.2208 78.9857 15.7511 77.9373 13.9245C77.5669 13.2701 76.9515 12.1718 76.5755 11.4776C76.1937 10.7833 75.8176 10.1289 75.7379 10.0208C75.6011 9.83871 75.5897 9.83302 75.2763 9.86147C74.9287 9.89562 74.6837 9.95252 73.5042 10.2598C73.0826 10.3679 72.5356 10.4874 72.2906 10.5216C71.1054 10.6866 69.5156 10.5159 67.3504 9.98666C66.1766 9.69645 65.9772 9.65093 65.527 9.56557C64.7749 9.42331 64.2279 9.31519 64.0171 9.26967C63.8917 9.24121 63.6752 9.19569 63.5327 9.16724C62.6837 9.00221 62.2507 8.91686 61.8233 8.82012C60.6837 8.56974 59.6011 8.43886 58.1538 8.36488C57.1225 8.31367 52.5413 8.30229 51.0256 8.34781Z" fill="#1C342C"/>
<path d="M24.433 10.4078C24.2393 10.6297 23.8177 11.3353 23.3504 12.206C22.2507 14.2488 21.7265 15.1935 21.2821 15.9617C19.8803 18.3573 17.339 22.8357 15.1852 26.7166C14.4843 27.9685 13.5043 29.7098 12.9972 30.5861C12.4786 31.4909 12.0798 32.2421 12.0798 32.3217C12.0798 32.5323 12.2678 32.7997 12.9972 33.6419C13.7037 34.4443 14.4957 35.4344 15.2365 36.4302C15.6695 37.0107 15.698 37.0334 15.9373 37.0733C16.188 37.1074 16.1994 37.1074 16.5413 36.7774C17.0883 36.2595 17.2536 36.1571 17.8063 35.9978C19.1054 35.6279 20.4501 35.5596 21.4302 35.81C22.3248 36.0433 23.0883 36.4871 23.7094 37.1359C24.1197 37.5683 24.3761 37.9268 24.9003 38.7975C25.1339 39.1901 25.3561 39.5088 25.3846 39.5145C25.4188 39.5145 25.7265 39.1617 26.0798 38.7235C27.5442 36.8912 28.188 36.5042 29.8576 36.4359C30.735 36.4018 31.4587 36.4985 32.0171 36.7261C32.4217 36.8912 33.5556 37.648 34.0912 38.1203C35.0712 38.9682 35.6239 39.8616 35.8177 40.9029C35.8575 41.1419 35.9145 41.7508 35.9373 42.2459L35.9829 43.1564L36.3533 43.2588C38.3362 43.8164 39.1909 44.2262 40.0228 45.0058C40.4672 45.4268 40.7749 45.8764 41.1624 46.6446C41.7265 47.777 41.9373 48.5566 41.9373 49.5695C41.9373 50.019 41.9544 50.1329 42.0399 50.2011C42.0912 50.2524 42.3932 50.332 42.7066 50.3889C43.3903 50.5084 44.2336 50.7645 44.7009 51.0035C45.9658 51.6351 46.9915 52.7562 47.5214 54.082C48.3077 56.0395 48.0627 57.8377 46.7806 59.4254L46.3932 59.9091L46.5014 60.0855C46.7293 60.4667 47.5784 60.7968 49.2023 61.1382C51.1852 61.5593 51.5385 61.6446 52.1994 61.8552C53.1567 62.1625 53.5613 62.2251 54.6439 62.2194C56.0741 62.2137 57.1624 61.9861 58.2849 61.4569C59.0256 61.0984 59.4815 60.774 59.9601 60.2562C60.3134 59.8806 60.7407 59.1693 60.7407 58.9701C60.7407 58.8734 59.0028 58.0198 57.8006 57.5361C57.1795 57.2801 56.9174 57.1435 56.7863 57.0012C56.6496 56.8533 56.3704 56.7167 55.4986 56.3696C53.5442 55.5843 51.4644 54.5031 51.0142 54.0422C50.6268 53.6325 50.5869 53.1943 50.906 52.7846C51.0712 52.5627 51.4701 52.3521 51.7151 52.3521C52.1481 52.3521 53.1567 52.7903 55.5271 54.0024C56.3761 54.4348 57.2365 54.8446 57.4416 54.9128C57.6467 54.9754 58.188 55.2372 58.6382 55.4876C60.416 56.4834 61.339 56.8874 62.4957 57.1719C63.0427 57.3142 63.2023 57.3256 64.0741 57.3256C65.1339 57.3199 65.4359 57.263 66.3647 56.9045C66.8148 56.7338 66.8376 56.7167 67.0541 56.3753C67.7835 55.2201 68.0912 54.1901 67.8974 53.5301C67.8177 53.2569 67.7721 53.1943 67.5385 53.0464C67.0313 52.7277 65.0598 51.5839 61.9088 49.7744C60.188 48.7899 58.3761 47.7486 57.8917 47.4697C57.4074 47.1852 56.735 46.7982 56.3989 46.6048C55.7379 46.2235 55.2991 45.8821 55.1054 45.6033C54.6952 45.0171 55.3618 44.0953 56.1368 44.1693C56.604 44.2148 59.1111 45.535 60.7293 46.5877C61.0028 46.7641 61.4302 47.0202 61.6809 47.1454C61.9316 47.2762 62.7635 47.7542 63.5328 48.2095C64.302 48.6647 65.0712 49.1086 65.2422 49.1939C65.4131 49.2793 66.1311 49.7004 66.8376 50.1215C68.7293 51.2596 69.453 51.5327 70.7407 51.5953C72 51.6522 72.8091 51.3563 73.5897 50.5653C74.3818 49.7687 74.735 48.8297 74.6895 47.6632C74.6781 47.3161 74.6382 46.9803 74.5983 46.9121C74.5641 46.8495 73.812 46.3658 72.9231 45.8366C70.8604 44.6131 69.6866 43.9075 68.0912 42.9401C67.3846 42.5076 66.3077 41.8646 65.698 41.5004C62.0627 39.3381 60.0285 38.0862 59.7436 37.8358C59.3675 37.5 59.208 36.9082 59.4017 36.5384C59.5214 36.305 59.7949 36.0888 60.0741 36.0148C60.4843 35.9067 60.792 36.0205 61.8291 36.6579C63.8291 37.887 66.3419 39.4007 70.1425 41.6541C72.3191 42.9515 74.3875 44.192 74.7293 44.4196C75.9487 45.222 76.8091 45.5862 77.698 45.6829C79.4302 45.8764 80.9402 44.9204 81.4416 43.3214C81.6182 42.7523 81.6182 41.5915 81.4359 41.1362C81.2308 40.6184 80.9858 40.2997 80.2336 39.5486C78.1823 37.5114 74.1254 34.376 67.9772 30.0968C62.8034 26.489 60.7806 25.1688 58.547 23.9283C58.1083 23.6836 57.6068 23.3877 57.4359 23.2739C57.0769 23.0349 55.6752 22.2382 54.4729 21.5952C54.0171 21.3505 53.1795 20.8953 52.604 20.5823C51.4758 19.9734 49.7322 19.1199 49.0883 18.8638L48.6895 18.7102L48.2336 18.8069C47.9829 18.8581 47.1624 19.1085 46.4103 19.3532L45.0427 19.8084L44.4615 20.5596C42.5185 23.0804 40.3134 25.0892 38.2849 26.1931C36.9744 26.9044 34.9288 27.5019 33.265 27.6556C32.5413 27.7238 31.7436 27.6669 31.1396 27.5133C29.9886 27.2117 29.1738 26.3923 28.9117 25.2826C28.7692 24.6851 28.8319 23.5527 29.0484 22.6935C29.4359 21.1969 29.8462 20.4571 32.2222 17.0144C34.1937 14.1635 34.6439 13.4806 34.6439 13.3611C34.6439 13.1733 34.3761 13.0709 33.6923 12.9912C33.3276 12.9514 32.7863 12.8547 32.4843 12.7807C32.1823 12.7067 31.2707 12.5132 30.4558 12.3539C29.641 12.1946 28.8376 12.0352 28.6724 12.0011C28.1254 11.893 27.5214 11.6085 26.3818 10.9256C25.5385 10.4192 25.2536 10.2883 24.9003 10.2598C24.5983 10.2314 24.5698 10.2371 24.433 10.4078Z" fill="#1C342C"/>
<path d="M19.0883 37.7221C18.376 37.944 17.8176 38.4789 16.7179 40.0039C15.4131 41.8078 15.208 42.1663 15.1225 42.7809C15.0484 43.3442 15.3504 44.3628 15.8119 45.1197C16.7065 46.5992 18.5755 47.2194 19.9829 46.5138C20.4102 46.2976 20.7122 45.9562 21.886 44.3856C23.2763 42.5305 23.2706 42.5419 23.2934 41.6997C23.3504 39.9698 22.7521 38.9057 21.2991 38.1318C20.7065 37.8131 20.1937 37.6708 19.6638 37.6765C19.4245 37.6765 19.1681 37.6993 19.0883 37.7221Z" fill="#1C342C"/>
<path d="M29.51 38.5982C29.1738 38.695 28.7579 38.9397 28.4502 39.2242C28.1596 39.4916 27.8405 39.9127 26.2336 42.1377C25.5784 43.0425 24.3077 44.7667 23.4131 45.9617C21.1624 48.9549 21.1852 48.9207 21.1795 49.9621C21.1795 51.1343 21.5043 51.9708 22.2507 52.7276C22.6154 53.0975 22.8034 53.2341 23.1909 53.4276C23.812 53.7292 24.2963 53.8487 24.9003 53.8543C25.5328 53.86 25.8861 53.7007 26.4502 53.1658C26.9858 52.6537 27.3846 52.1301 28.49 50.5027C29.4074 49.154 30.3191 47.9135 31.8234 45.9788C32.792 44.7325 33.3277 43.9359 33.5727 43.3725C33.755 42.9514 33.7607 42.9059 33.755 42.2231C33.755 41.6085 33.7322 41.4492 33.5955 41.0451C33.4017 40.4533 32.9687 39.7989 32.547 39.4575C31.6923 38.7633 30.3134 38.3706 29.51 38.5982Z" fill="#1C342C"/>
<path d="M35.2137 45.6944C34.7122 45.8196 32.5071 48.5055 29.8461 52.2385C28.4387 54.2187 28.433 54.2244 28.433 54.9926C28.433 55.5901 28.5584 56.0795 28.8775 56.7339C29.094 57.1835 29.2251 57.3599 29.6296 57.7639C30.3533 58.4923 31.0655 58.7996 32.0513 58.7996C32.6268 58.7996 33.1225 58.6971 33.4302 58.5207C33.7721 58.3273 34.2564 57.7639 35.1396 56.5348C35.5726 55.9373 36.3704 54.839 36.9174 54.0879C38.7179 51.6182 38.8547 51.419 39.0826 50.9581C39.4245 50.2639 39.5499 49.8371 39.584 49.1941C39.6068 48.773 39.5897 48.534 39.5271 48.2722C39.2422 47.1796 38.3989 46.3033 37.2023 45.8538C36.7863 45.7001 36.6382 45.6774 36.0684 45.6603C35.7094 45.6489 35.3219 45.666 35.2137 45.6944Z" fill="#1C342C"/>
<path d="M41.7778 52.4717C41.2649 52.557 40.906 52.7676 40.4501 53.2513C39.0712 54.691 37.4017 56.9671 36.7293 58.3101C36.2906 59.1864 36.2108 59.6473 36.3818 60.3643C36.7464 61.9121 38.2564 63.1071 39.9715 63.2039C40.6097 63.238 41.0256 63.1583 41.3675 62.925C41.698 62.7031 43.0712 61.0074 44.0513 59.6189C44.6951 58.697 45.1738 57.9117 45.51 57.2175C45.7778 56.6598 45.7835 56.6428 45.7778 56.1079C45.7778 55.6413 45.755 55.5047 45.6011 55.1348C45.3618 54.5316 44.9857 53.9853 44.4615 53.4846C43.6353 52.6936 42.6553 52.3294 41.7778 52.4717Z" fill="#1C342C"/>
</svg>
