<svg width="16" height="16" viewBox="0 0 16 16" fill="none" xmlns="http://www.w3.org/2000/svg">
<path d="M7.31025 15.3196C5.51199 15.1337 3.97049 14.4035 2.70053 13.1358C2.05409 12.4906 1.64858 11.9272 1.26359 11.1394C0.901427 10.3984 0.693371 9.73944 0.56869 8.9385C0.477103 8.35015 0.477103 7.32591 0.56869 6.73756C0.823191 5.10267 1.53102 3.70881 2.70053 2.53951C3.34742 1.89273 3.91123 1.48722 4.698 1.10283C5.43916 0.740734 6.09825 0.532716 6.89933 0.408057C7.48846 0.316382 8.51259 0.316467 9.10067 0.408239C9.91409 0.535179 10.5621 0.739526 11.302 1.10241C12.0929 1.4903 12.6535 1.89362 13.2995 2.53951C13.9455 3.1854 14.3489 3.74589 14.7368 4.53663C15.0962 5.26912 15.3064 5.93529 15.4313 6.73756C15.5229 7.32591 15.5229 8.35015 15.4313 8.9385C15.1775 10.5693 14.466 11.9702 13.2995 13.1366C12.6535 13.7824 12.0929 14.1858 11.302 14.5737C10.571 14.9322 9.88822 15.1475 9.10972 15.265C8.6574 15.3333 7.71837 15.3617 7.31025 15.3196ZM12.3086 11.1602C12.5029 11.0564 12.6571 10.9011 12.7467 10.7186L12.8283 10.5525V7.83803V5.12354L12.7467 4.95743C12.6571 4.775 12.5029 4.61962 12.3086 4.51589L12.1825 4.44859H8H3.81747L3.6914 4.51589C3.4971 4.61962 3.34294 4.775 3.25333 4.95743L3.17174 5.12354L3.1638 7.77707C3.15501 10.7118 3.14928 10.6124 3.34174 10.866C3.44787 11.0059 3.67102 11.1688 3.8135 11.2104C3.86762 11.2262 5.60977 11.2352 8.04403 11.2324L12.1825 11.2275L12.3086 11.1602ZM3.99795 10.4253C3.95323 10.3759 3.94982 10.1749 3.95671 7.99385L3.96422 5.61626L5.69594 6.99264C6.64838 7.74964 7.5225 8.44216 7.63843 8.53156C7.88231 8.71963 8.0158 8.75424 8.1677 8.66877C8.21958 8.63958 8.852 8.1469 9.57307 7.57392C10.2941 7.00094 11.1432 6.32672 11.4599 6.07564L12.0358 5.61914L12.0433 7.99529C12.0502 10.175 12.0468 10.3759 12.0021 10.4253C11.9552 10.477 11.7978 10.4792 8 10.4792C4.20225 10.4792 4.04478 10.477 3.99795 10.4253ZM6.34485 6.51106L4.70749 5.21158L6.35374 5.204C7.25918 5.19983 8.74122 5.19983 9.64715 5.204L11.2943 5.21158L9.67439 6.49719C8.78343 7.20428 8.0382 7.78905 8.01833 7.79667C7.99846 7.80429 7.2454 7.22577 6.34485 6.51106Z" fill="#F5F2EB"/>
</svg>
