<svg width="95" height="71" viewBox="0 0 95 71" fill="#1C342C" xmlns="http://www.w3.org/2000/svg">
<path d="M18.6869 0.777628C13.2997 1.7918 9.15824 5.39213 7.27272 10.7335C6.93602 11.7138 6.85185 12.3392 6.78451 14.3676C6.6835 17.2749 6.91919 18.8807 7.81144 21.0443C9.66329 25.625 14.2424 28.9548 19.7811 29.7662C22.8956 30.2226 26.9865 29.0563 29.8316 26.8927C32.0707 25.1855 34.3603 22.1599 35 20.0301C35.7744 17.4946 35.8249 13.7084 35.0842 10.8687C34.6801 9.26291 33.7374 7.4881 32.5589 6.06825C31.0269 4.20893 30.0168 3.38068 28.1313 2.40031C25.1515 0.828337 21.6498 0.236732 18.6869 0.777628Z" fill="#1C342C"/>
<path d="M48.8215 8.40085C47.5589 8.62059 45.7407 9.2291 44.596 9.8207C39.899 12.2885 37.5589 16.2945 37.5421 21.9063C37.5421 25.5911 38.5017 27.8223 41.3636 30.7127C42.8956 32.2509 43.266 32.5214 44.8148 33.2989C46.8687 34.2962 48.4343 34.6511 50.8081 34.6511C52.5758 34.6511 53.6869 34.3976 55.9428 33.4848C58.6195 32.4199 60.8417 30.2564 62.2559 27.3491C63.1987 25.4052 63.468 24.2558 63.5859 21.8894C63.7037 19.4892 63.367 17.7989 62.3737 15.7705C61.835 14.6549 60.202 12.373 59.596 11.866C58.7542 11.1729 56.6835 9.85451 55.6566 9.36432C53.7205 8.48537 50.8081 8.0628 48.8215 8.40085Z" fill="#1C342C"/>
<path d="M76.532 17.7651C74.5959 18.1539 71.6498 19.9456 70.1852 21.6021C69.3097 22.5993 68.0808 25.0334 67.7609 26.4194C67.239 28.6506 67.5926 31.4396 68.6532 33.5862C70 36.2569 72.5252 38.5557 75.202 39.5699C76.5488 40.0601 76.8687 40.1277 78.6195 40.1277C80.101 40.1446 80.7744 40.077 81.4815 39.8234C83.8215 39.0121 85.7576 37.6937 87.3737 35.8174C89.1077 33.806 89.7475 32.1157 89.8653 29.2422C89.9495 26.9941 89.7643 26.0137 88.8047 23.9347C88.3333 22.9036 87.8956 22.2782 86.9023 21.2471C85.2525 19.5568 84.6128 19.1004 82.6431 18.3398C81.2121 17.7651 80.8754 17.6975 79.2087 17.6468C78.1986 17.613 76.9865 17.6637 76.532 17.7651Z" fill="#1C342C"/>
<path d="M18.0303 33.4C15.0169 33.8733 10.3367 35.7326 9.02362 36.9665C8.73742 37.2369 8.29971 37.6088 8.01351 37.8116C6.63304 38.8596 4.74752 40.8035 3.90577 42.0712C1.83506 45.1306 1.26267 46.3814 0.589271 49.3564C0.437756 50.0494 0.235735 50.7931 0.15156 51.0128C-0.0336249 51.4861 -0.05046 68.9638 0.134725 68.9638C0.202065 68.9638 0.336745 69.1328 0.420921 69.3356C0.521931 69.5554 0.925971 69.9103 1.34685 70.147L2.10442 70.5696L13.4681 70.6203C19.7139 70.6372 24.9159 70.5865 25.0337 70.5188C25.1852 70.4174 25.2526 69.1497 25.2862 65.5832C25.3367 57.6557 25.5051 53.4807 25.825 51.9763C26.4984 48.9 27.6431 45.9758 29.1583 43.5586C30.2189 41.8345 31.0101 40.8542 32.6936 39.147C33.4176 38.4202 34.0068 37.7609 34.0068 37.6933C34.0068 37.1524 29.6802 34.7522 27.3233 33.9916C24.8149 33.1464 21.1448 32.9267 18.0303 33.4Z" fill="#1C342C"/>
<path d="M47.7778 37.8795C46.7508 38.0148 42.7778 39.2656 41.9192 39.722C41.7172 39.8403 41.2121 40.1614 40.8081 40.4657C40.4209 40.753 39.8148 41.1756 39.4781 41.4122C37.9293 42.494 36.229 43.9646 35.7744 44.6407C35.505 45.0464 35.0673 45.6549 34.8148 45.9929C33.9057 47.1931 32.4074 50.4046 32.0202 51.9935C31.3973 54.5627 31.2963 56.0671 31.3468 62.4733L31.3973 68.5584L31.8518 69.2514C32.0875 69.6233 32.5758 70.0627 32.9461 70.2487C33.5522 70.5529 34.1077 70.5698 44.8653 70.5698H56.1448L56.2458 63.217C56.33 57.2672 56.3973 55.6783 56.6162 54.8501C57.037 53.2274 58.1987 49.9482 58.7374 48.9002C59.3939 47.5311 61.0101 45.1985 62.1717 43.8801C62.9125 43.0518 63.1145 42.7138 63.0135 42.5109C62.4411 41.4968 58.6532 39.4008 55.8923 38.5556C53.2828 37.7612 50.4882 37.5246 47.7778 37.8795Z" fill="#1C342C"/>
<path d="M77.4411 42.5279C74.7811 42.849 71.6161 44.0322 69.7811 45.3845C69.4949 45.5873 68.973 45.9592 68.6027 46.2127C66.2963 47.7847 64.0404 51.1315 62.8619 54.7656L62.3906 56.2024L62.3569 61.9494C62.3232 65.4821 62.3737 67.9499 62.4747 68.3387C62.7104 69.2345 63.6869 70.2656 64.4949 70.4854C64.9495 70.6037 69.7138 70.6544 79.0909 70.6206C94.5791 70.5699 93.569 70.6375 94.4949 69.4036L94.9495 68.812V62.4903C94.9495 56.2024 94.9495 56.1517 94.5286 54.6642C93.9731 52.7204 93.367 51.4188 92.1717 49.6271C90.2525 46.7198 86.3636 44.0153 82.6936 43.035C81.2121 42.6462 78.6195 42.3927 77.4411 42.5279Z" fill="#1C342C"/>
</svg>
