<svg width="72" height="71" viewBox="0 0 72 71" fill="none" xmlns="http://www.w3.org/2000/svg">
<path d="M34.9003 0.318558C34.2051 0.341324 32.8604 0.44944 32.5071 0.512039C32.3533 0.534798 31.9772 0.586014 31.6809 0.625847C30.8889 0.716896 30.3248 0.796562 30 0.853462C29.0199 1.03556 28.114 1.23473 27.265 1.45665C26.735 1.59322 26.2336 1.71841 26.1538 1.74117C25.9145 1.79808 24.8775 2.11674 24.7578 2.16796C24.6952 2.19072 24.5185 2.25332 24.359 2.29884C23.282 2.61182 21.5897 3.31174 19.9145 4.12547C18.3761 4.87662 17.151 5.58792 15.698 6.58944C15.0484 7.03899 13.7835 7.95515 13.7322 8.01775C13.7151 8.04051 13.4872 8.23399 13.2194 8.45022C12.9516 8.66646 12.6325 8.93391 12.5071 9.04772C12.3761 9.15584 12.0684 9.42329 11.8234 9.64522C10.8889 10.459 9.43589 11.9783 8.60398 13.0026C8.39886 13.253 8.22222 13.4692 8.20512 13.4863C8.11396 13.5716 7.4245 14.4593 7.29914 14.6528C7.21937 14.778 7.10541 14.9317 7.04843 14.9942C6.99145 15.0568 6.88889 15.1991 6.82051 15.3072C6.75213 15.4153 6.67236 15.5348 6.63817 15.5747C6.47293 15.7682 6.43874 15.8194 6.43874 15.8421C6.43874 15.8592 6.30199 16.0697 6.13675 16.3144C5.88604 16.6786 5.01424 18.0955 4.77492 18.5223C4.65527 18.7329 4.25641 19.4897 4.14814 19.7173C4.08547 19.8425 3.9943 20.0189 3.94302 20.1157C3.66381 20.6449 3.30484 21.396 3.30484 21.4529C3.30484 21.4814 3.20228 21.7204 3.07692 21.9878C2.95156 22.2553 2.849 22.5 2.849 22.5341C2.849 22.5739 2.76923 22.7674 2.67806 22.9723C2.58119 23.1714 2.50712 23.3877 2.50712 23.4503C2.50712 23.5129 2.48433 23.6039 2.45014 23.6608C2.34757 23.8486 2.22222 24.1616 2.11396 24.4973C2.05698 24.6851 1.9829 24.9013 1.94871 24.981C1.88034 25.1574 1.80057 25.4419 1.65812 26.0337C1.60114 26.2841 1.48148 26.7564 1.39601 27.0865C1.1225 28.1733 1.06552 28.4522 0.883186 29.5618C0.831904 29.8748 0.752132 30.3243 0.712246 30.5576C0.575494 31.2803 0.398856 32.7997 0.30199 34.0573C0.227916 35.0588 0.227916 35.4799 0.279198 36.6464C0.313386 37.4146 0.381762 38.2682 0.427346 38.5527C0.47293 38.8316 0.512816 39.173 0.512816 39.2982C0.512816 39.4291 0.564098 39.7477 0.632474 40.0095C0.70085 40.2713 0.774924 40.6127 0.797716 40.772C0.962959 41.7394 1.10541 42.4678 1.19088 42.758C1.21937 42.8547 1.28774 43.1392 1.33903 43.3896C1.39031 43.64 1.47008 43.9359 1.50997 44.044C1.55555 44.1521 1.61823 44.3855 1.65242 44.5562C1.7151 44.835 1.87464 45.3984 2.14245 46.2349C2.19373 46.3885 2.29629 46.6559 2.37037 46.821C2.44444 46.986 2.50712 47.151 2.50712 47.1908C2.50712 47.2648 2.88888 48.2038 3.1396 48.75C3.23077 48.9492 3.30484 49.1313 3.30484 49.1597C3.30484 49.1882 3.36752 49.3362 3.44159 49.4898C3.62963 49.8597 3.89743 50.406 4.01709 50.645C4.06837 50.7531 4.13675 50.8953 4.17094 50.9522C4.32478 51.2368 4.75783 52.0562 4.8319 52.2098C4.87749 52.3009 4.97435 52.4602 5.04843 52.5626C5.1225 52.6594 5.18518 52.7561 5.18518 52.7789C5.18518 52.7959 5.28774 52.9724 5.4131 53.1715C5.53846 53.3707 5.64102 53.5471 5.64102 53.5699C5.64102 53.5926 5.74359 53.7463 5.86894 53.917C5.9943 54.0877 6.09686 54.2413 6.09686 54.2641C6.09686 54.2812 6.17663 54.395 6.2678 54.5145C6.36467 54.634 6.43874 54.7478 6.43874 54.7705C6.43874 54.7876 6.47293 54.8388 6.50712 54.8787C6.547 54.9242 6.62108 55.0152 6.66666 55.0835C6.82621 55.3282 7.7094 56.5346 7.74359 56.563C7.76638 56.5801 7.86894 56.7053 7.9772 56.8476C8.20512 57.1378 8.2735 57.2231 8.60398 57.6158C9.9772 59.2319 11.7151 60.9219 13.4017 62.2706C13.5499 62.3901 13.7037 62.5152 13.7436 62.5551C13.9886 62.7884 16.359 64.4728 16.7236 64.6776C16.7863 64.7118 17.0484 64.8711 17.2991 65.0247C18.3875 65.6962 19.9088 66.5043 21.1111 67.0335C21.9487 67.409 22.4729 67.6253 23.0199 67.8244C23.3789 67.9553 23.8063 68.1147 23.9601 68.1716C24.359 68.3195 25.6524 68.7235 26.2678 68.8886C28.547 69.5088 30.114 69.799 32.2507 69.9868C33.9145 70.1405 35.7607 70.1746 37.4359 70.0779C39.698 69.9527 40.5356 69.8958 40.9971 69.8218C41.2194 69.7877 41.6467 69.7251 41.9487 69.6795C43.0484 69.5145 44.3476 69.2414 45.2991 68.9625C45.5043 68.9056 45.8632 68.8032 46.0969 68.7406C47.8177 68.2569 48.906 67.87 50.7407 67.079C51.9544 66.5555 53.7037 65.645 54.8718 64.928C55.3675 64.6264 57.4416 63.2038 57.7208 62.9762C57.7721 62.942 57.9772 62.7827 58.1766 62.6291C58.5242 62.3616 59.3732 61.656 59.8291 61.252C60.5299 60.6374 60.8319 60.3472 61.339 59.8407C62.6382 58.5376 63.9658 57.0012 64.6895 55.9826C64.7749 55.8574 64.8718 55.7265 64.9003 55.6924C65.3048 55.2144 66.5755 53.2796 67.0199 52.4773C67.1168 52.3009 67.2593 52.0391 67.339 51.8969C67.6353 51.3676 68.604 49.4215 68.604 49.3532C68.604 49.3134 68.6667 49.1654 68.7464 49.0175C68.8262 48.8695 68.8889 48.733 68.8889 48.7045C68.8889 48.6817 68.9687 48.4883 69.0655 48.272C69.265 47.8282 69.2821 47.7883 69.4587 47.2876C69.8348 46.2235 69.8917 46.0584 69.9202 46.0072C69.9373 45.9731 69.9943 45.7853 70.0513 45.5805C70.1026 45.3756 70.1823 45.0968 70.2279 44.9545C70.3191 44.6301 70.4729 44.0839 70.547 43.788C70.5812 43.6628 70.6382 43.4295 70.6838 43.2758C70.8547 42.6385 70.8889 42.5019 70.9402 42.1263C71.0655 41.2785 71.1111 40.9883 71.1624 40.772C71.1909 40.6468 71.2593 40.1745 71.3105 39.7193C71.3561 39.264 71.4245 38.7633 71.453 38.6096C71.4815 38.4503 71.5385 37.6878 71.5726 36.9025C71.641 35.3661 71.5669 32.3103 71.453 32.0144C71.4245 31.929 71.396 31.7413 71.396 31.5933C71.396 31.2803 71.2023 29.8634 71.0826 29.2488C71.0313 29.0155 70.9744 28.6684 70.9459 28.4806C70.9003 28.1506 70.8547 27.9628 70.6781 27.3425C70.6382 27.1832 70.5584 26.8759 70.5128 26.6597C70.4615 26.4378 70.3989 26.2101 70.3761 26.1475C70.2564 25.8744 70.1424 25.5102 70.1424 25.4192C70.1424 25.311 69.9943 24.7989 69.9088 24.6111C69.8803 24.5485 69.812 24.3437 69.7493 24.1559C69.6467 23.8315 69.5954 23.695 69.4245 23.2909C69.3789 23.1942 69.3447 23.0861 69.3447 23.0576C69.3447 22.9893 68.9516 22.0447 68.7122 21.5326C68.6211 21.3448 68.547 21.1684 68.547 21.1399C68.547 21.1001 68.0456 20.0815 67.8746 19.7742C67.8405 19.7116 67.7607 19.5466 67.6923 19.4044C67.6239 19.2621 67.4929 19.0174 67.4017 18.8638C67.3162 18.7044 67.2137 18.528 67.1795 18.4654C67.151 18.4028 67.0997 18.3118 67.0655 18.2663C66.9288 18.05 66.5527 17.407 66.5527 17.3842C66.5527 17.3672 66.4786 17.2477 66.3818 17.1168C66.2906 16.9916 66.2108 16.8607 66.2108 16.838C66.2108 16.7924 65.51 15.7454 65.2479 15.3869C65.1966 15.3186 65.1168 15.2048 65.0712 15.1365C65.0256 15.0682 64.9174 14.9317 64.8319 14.8292C64.7464 14.7325 64.6724 14.6357 64.6724 14.6187C64.6724 14.5845 63.8917 13.5887 63.6068 13.2587C63.5442 13.179 63.3789 12.9855 63.2479 12.8319C62.7009 12.1889 62.1481 11.5914 61.3105 10.7549C60.5071 9.94681 60.1652 9.62815 59.6866 9.21843C59.2023 8.81441 58.4216 8.15432 58.3248 8.08034C58.2678 8.03482 58.1937 7.96653 58.1538 7.93808C57.8006 7.62511 55.8462 6.25371 55.3846 5.98625C55.2764 5.92366 54.8262 5.65621 54.3875 5.39445C51.9772 3.94338 50.1197 3.08412 47.5043 2.21349C46.1766 1.77531 44.7863 1.38837 43.9316 1.22334C43.698 1.18351 43.339 1.10384 43.1339 1.05832C42.7977 0.984344 42.2564 0.887604 41.282 0.739655C41.094 0.711205 40.6724 0.659988 40.3419 0.625847C40.0114 0.591705 39.5783 0.534798 39.3732 0.506348C38.3761 0.369774 36.2051 0.278725 34.9003 0.318558ZM41.5385 17.9248C41.7436 17.9931 42 18.1012 42.1197 18.1581C42.5014 18.3516 50.1766 25.9199 55.2991 31.1551C57.5499 33.4598 57.886 33.824 58.0456 34.154C58.3248 34.7174 58.4216 35.1612 58.4273 35.8498C58.4273 36.5156 58.3533 36.8285 58.0456 37.5057C57.8519 37.9211 57.7607 38.0121 50.3647 45.4154C46.245 49.5296 42.7179 53.0293 42.5299 53.1886C42.0285 53.5983 41.3618 53.8316 40.5983 53.8714C39.8518 53.9113 39.4587 53.8316 38.8034 53.5129C38.359 53.291 38.1823 53.1658 37.8063 52.7846C37.0826 52.0562 36.7521 51.2595 36.7464 50.2694C36.7464 49.6605 36.8547 49.1427 37.0826 48.6362C37.2877 48.1867 37.2991 48.181 42.0969 43.3384C44.1367 41.2785 45.812 39.5713 45.812 39.5429C45.812 39.5201 38.6496 39.4917 29.9031 39.4803L13.9886 39.4575L13.5328 39.3039C12.9516 39.1104 12.4786 38.7974 12.0057 38.3024C11.5442 37.813 11.2593 37.3122 11.1111 36.7318C10.6838 35.0531 11.4986 33.2948 13.0655 32.5209L13.5897 32.2591L14.7863 32.2079C15.4473 32.1794 22.5356 32.151 30.6553 32.151C38.7236 32.1453 45.4416 32.1225 45.584 32.1054L45.8405 32.0656L42.5356 28.7367C37.5214 23.6836 37.3048 23.4616 37.0997 23.0292C36.8604 22.5284 36.7521 22.0333 36.7521 21.4131C36.7521 20.7302 36.8262 20.3888 37.1054 19.8027C37.2934 19.4157 37.4302 19.2279 37.8006 18.8581C38.3761 18.2833 38.9459 17.9704 39.6866 17.811C40.0912 17.72 41.1282 17.7883 41.5385 17.9248Z" fill="black"/>
</svg>
