<svg width="16" height="16" viewBox="0 0 16 16" fill="none" xmlns="http://www.w3.org/2000/svg">
<path d="M5.10976 15.3342C3.85475 15.2773 3.03613 15.0544 2.29287 14.5672C2.02837 14.3939 1.44707 13.8125 1.27373 13.548C0.867674 12.9283 0.637568 12.223 0.541341 11.303C0.48622 10.776 0.48622 4.90436 0.541341 4.37739C0.642183 3.41331 0.901021 2.64988 1.32824 2.05646C1.53768 1.76554 2.02109 1.29402 2.29684 1.11168C2.90758 0.70782 3.61419 0.477309 4.53758 0.380701C5.06449 0.325574 10.9355 0.325574 11.4624 0.380701C12.4264 0.481555 13.1897 0.740421 13.7831 1.16769C14.074 1.37715 14.5454 1.86061 14.7278 2.1364C15.1316 2.74721 15.3621 3.4539 15.4587 4.37739C15.5138 4.90436 15.5138 10.776 15.4587 11.303C15.3264 12.5671 14.9422 13.4375 14.2012 14.1516C13.52 14.8081 12.6925 15.1615 11.5211 15.2963C11.3038 15.3213 10.3441 15.3335 8.26408 15.3377C6.64217 15.3409 5.22273 15.3394 5.10976 15.3342ZM10.9258 13.9443C11.8382 13.8937 12.3152 13.7783 12.8093 13.4886C13.0189 13.3658 13.3783 13.0371 13.5319 12.8279C13.6721 12.6369 13.8511 12.2684 13.9234 12.022C14.1039 11.4068 14.1317 10.8479 14.1317 7.8402C14.1317 4.83 14.1037 4.26939 13.9229 3.65841C13.7897 3.20868 13.6262 2.92887 13.2997 2.59206C12.7444 2.01928 12.1496 1.80393 10.9369 1.73666C10.2687 1.6996 5.73404 1.69944 5.06724 1.73644C4.45765 1.77028 4.08829 1.82879 3.73066 1.94818C3.29399 2.09395 3.0927 2.21474 2.76641 2.52679C2.42717 2.85123 2.26031 3.11596 2.10865 3.57037C1.89724 4.20381 1.86821 4.71959 1.86839 7.8402C1.86857 10.871 1.89532 11.4067 2.07723 12.022C2.2101 12.4714 2.37375 12.7515 2.70033 13.0883C3.24103 13.6461 3.87141 13.8812 4.99004 13.9422C5.59761 13.9753 10.3369 13.977 10.9258 13.9443ZM7.51585 11.6841C6.62914 11.5699 5.80693 11.1498 5.18594 10.4937C4.68491 9.96431 4.35303 9.32108 4.19538 8.57385C4.12214 8.22669 4.12214 7.45371 4.19538 7.10655C4.52917 5.52446 5.68452 4.36898 7.26644 4.03516C7.6514 3.95392 8.38915 3.96121 8.78987 4.05021C9.59543 4.22912 10.2606 4.60202 10.8104 5.18282C11.3101 5.71079 11.6273 6.31615 11.789 7.05025C11.8861 7.4911 11.8864 8.19541 11.7897 8.63016C11.6227 9.38072 11.3061 9.97941 10.7913 10.5183C10.0841 11.2586 9.16572 11.666 8.13204 11.6978C7.9061 11.7048 7.62882 11.6986 7.51585 11.6841ZM8.65619 10.2322C9.52004 9.98187 10.1316 9.37071 10.3952 8.49451C10.4613 8.27471 10.4731 8.1797 10.4745 7.85487C10.4764 7.41168 10.4308 7.1932 10.2591 6.82268C10.1228 6.52871 10.0039 6.35188 9.79145 6.12736C9.48464 5.80314 9.01837 5.53146 8.57218 5.41693C8.29488 5.34576 7.70791 5.34422 7.44249 5.41398C6.66353 5.61869 6.07293 6.10657 5.74324 6.81769C5.57257 7.1858 5.52429 7.41127 5.52429 7.8402C5.52429 8.26913 5.57257 8.4946 5.74324 8.86271C6.10424 9.64135 6.80667 10.1714 7.65713 10.307C7.9165 10.3484 8.37344 10.3142 8.65619 10.2322ZM11.8502 4.72429C11.6486 4.69321 11.506 4.61743 11.3538 4.46051C11.1761 4.27724 11.1038 4.09459 11.1038 3.82866C11.1038 3.45435 11.2912 3.16088 11.6376 2.99268C11.8439 2.89252 12.1862 2.89866 12.4061 3.00648C12.5981 3.10063 12.7632 3.2704 12.8509 3.46407C12.9385 3.6572 12.9365 4.01774 12.847 4.20221C12.7428 4.41683 12.6186 4.54418 12.4223 4.6377C12.2143 4.73683 12.0717 4.75841 11.8502 4.72429Z" fill="#F5F2EB"/>
</svg>
