<svg width="71" height="71" viewBox="0 0 71 71" fill="#1C342C" xmlns="http://www.w3.org/2000/svg">
<path d="M32.5758 0.169121C27.4748 0.693108 22.3401 3.24545 18.8047 6.99791C16.7845 9.12768 14.7812 12.3054 13.9562 14.6549C12.9967 17.3594 12.761 18.7117 12.6768 22.0753C12.6094 24.8812 12.6431 25.5235 12.9461 27.011C13.5017 29.7831 14.3098 31.9128 15.6397 34.2285C16.6499 35.9527 17.2222 36.6964 19.7138 39.4009C21.33 41.1588 22.1549 42.3251 22.9967 44.0492C24.4613 47.1086 24.7475 48.5622 24.8653 53.8529L24.9663 58.1124L24.3603 58.3998C23.4007 58.8561 23.1482 59.2449 23.1482 60.2591C23.1482 61.2902 23.569 61.8987 24.5118 62.2029C24.9832 62.372 25.101 62.5241 25.4041 63.4199C26.835 67.6626 30.7913 70.553 35.1852 70.553C39.5455 70.553 43.6195 67.6288 44.8653 63.6059C45.2525 62.372 45.3704 62.2029 46.027 62.2029C46.9697 62.186 47.6431 61.3409 47.6431 60.1746C47.6431 59.2449 46.8014 58.3152 45.9596 58.3152H45.4209L45.5051 53.3627C45.5556 49.2891 45.6229 48.2411 45.8754 47.3283C46.33 45.6549 47.0034 44.1337 47.862 42.7476C48.7206 41.3954 48.9899 41.0573 51.0606 38.86C52.5926 37.2542 52.6936 37.1359 53.6364 35.8174C54.3435 34.8371 54.3603 34.8033 55.2525 33.1299C58.569 26.9096 58.6027 18.9145 55.3199 12.4576C53.0303 7.97828 49.7138 4.68221 45.1515 2.38341C41.532 0.557884 36.835 -0.270355 32.5758 0.169121ZM37.2054 4.22582C38.6869 4.41176 41.1616 5.05407 42.3401 5.54426C45.9765 7.09933 49.1078 9.85451 51.2963 13.4379C52.1381 14.824 53.0135 17.3087 53.468 19.5906C53.6869 20.7062 53.7206 21.5513 53.6532 23.3938C53.569 25.6081 53.4007 26.5884 52.7105 28.8534C52.0202 31.1353 50.4209 33.6539 48.0303 36.1724C47.0371 37.2204 45.8923 38.4881 45.5219 38.9783C44.6297 40.1446 43.4175 42.2067 42.862 43.559C42.3569 44.7929 41.6499 47.4974 41.4815 48.8834L41.3805 49.8638H39.2929H37.2054V42.7814C37.2054 36.3076 37.2222 35.6822 37.5084 35.3103C37.66 35.0906 37.8788 34.7694 37.963 34.6173C38.064 34.4652 39.5623 32.1833 41.33 29.5464C43.0808 26.9096 44.6128 24.5939 44.7307 24.391C44.8317 24.1713 45.0505 23.8332 45.1852 23.6304C45.5219 23.1402 45.5219 22.5993 45.1852 21.8725C44.8653 21.1795 44.1919 20.7907 43.367 20.7907C42.4916 20.7907 42.3064 20.909 41.4815 22.0753C41.0606 22.6669 40.6566 23.1571 40.6061 23.1571C40.5387 23.1571 39.4276 22.6162 38.1313 21.9739C36.4815 21.1288 35.6061 20.7907 35.1515 20.7907C34.697 20.7907 33.8384 21.1288 32.1717 21.9739C30.8754 22.6162 29.7812 23.1571 29.7307 23.1571C29.6802 23.1571 29.4108 22.8191 29.1246 22.3965C28.064 20.8414 27.2727 20.4865 26.027 20.9597C25.1515 21.2809 24.6633 22.6838 25.101 23.5459C25.202 23.7487 27.0707 26.5884 29.2256 29.8676L33.165 35.8005V42.8152V49.83L31.9529 49.9483C31.2795 50.0159 30.303 50.0328 29.798 49.999L28.8721 49.9483L28.7374 49.0186C28.0303 44.3365 25.9764 40.0939 22.6768 36.5781C20.2694 34.0257 19.3266 32.7411 18.367 30.7296C14.8822 23.3769 16.633 14.4014 22.6263 8.95865C22.9967 8.63749 23.367 8.28253 23.468 8.18111C24.2256 7.43739 27.4916 5.57806 28.6869 5.2062C32.1549 4.14131 34.394 3.88776 37.2054 4.22582ZM37.0371 25.963C37.6936 26.3011 38.2155 26.6391 38.2155 26.7405C38.2155 26.8758 36.0775 30.1718 35.4377 31.0001C35.2862 31.2029 35.1347 31.2705 35.0337 31.1691C34.6296 30.7634 32.1549 26.9603 32.1549 26.7744C32.1549 26.656 32.8115 26.2335 33.6195 25.8109C35.2694 24.9657 35.1179 24.9488 37.0371 25.963ZM41.3805 56.1517L41.33 58.2307H35.1852H29.0404L28.9899 56.1517L28.9394 54.0895H35.1852H41.431L41.3805 56.1517ZM40.8249 62.4058C41.027 62.6086 40.3536 63.7749 39.495 64.6539C38.2828 65.8878 36.8855 66.4963 35.202 66.4963C33.1145 66.5132 31.1111 65.3976 29.9327 63.5721C29.2929 62.5579 29.3266 62.4058 30.1852 62.3212C31.2963 62.2029 40.7071 62.2705 40.8249 62.4058Z" fill="#1C342C"/>
<path d="M5.31988 4.74972C4.62964 5.34133 4.39395 6.16957 4.71381 6.9133C5.03368 7.69083 9.20876 10.3108 10.1347 10.3108C11.5825 10.3108 12.5589 8.6205 11.8855 7.28516C11.6498 6.86259 9.86533 5.62868 7.96297 4.6145C6.93604 4.0567 6.04378 4.10741 5.31988 4.74972Z" fill="#1C342C"/>
<path d="M61.1111 5.34133C58.6196 6.77808 58.2492 7.13304 58.2155 8.13031C58.2155 8.55288 58.2997 9.07688 58.4007 9.27971C58.6532 9.75299 59.5623 10.3108 60.0842 10.3108C60.8754 10.3108 64.8317 8.02889 65.3872 7.25136C65.5387 7.01472 65.6566 6.52453 65.6566 6.06815C65.6566 5.37513 65.5893 5.2061 65.0674 4.74972C64.1078 3.90458 63.4512 4.00599 61.1111 5.34133Z" fill="#1C342C"/>
<path d="M0.774436 21.3147C-0.201995 22.1598 -0.18516 23.4276 0.791271 24.2727C1.36366 24.7629 1.85188 24.8474 4.32663 24.8474C6.63302 24.8474 7.28959 24.6784 7.87881 23.9178C8.13134 23.5966 8.24918 23.2078 8.24918 22.7007C8.24918 22.0584 8.16501 21.8556 7.67679 21.3654L7.1044 20.7907H4.22562H1.36366L0.774436 21.3147Z" fill="#1C342C"/>
<path d="M62.9293 21.0781C61.7004 21.8556 61.7677 23.8333 63.0809 24.5263C63.4007 24.6953 64.2256 24.7629 66.2627 24.7629H69.0068L69.596 24.1882C70.3367 23.4614 70.4883 22.8191 70.1179 21.9909C69.6297 20.9091 69.2593 20.7907 66.128 20.7907C63.8721 20.7907 63.2997 20.8415 62.9293 21.0781Z" fill="#1C342C"/>
<path d="M7.18856 36.6119C5.40405 37.6599 4.98317 37.9979 4.78115 38.4543C4.47812 39.2149 4.47812 39.6544 4.81482 40.2291C5.43772 41.2771 6.633 41.5137 7.91247 40.8545C10.202 39.6544 11.7003 38.674 11.9529 38.2008C12.3064 37.5415 12.1549 36.5612 11.5993 35.9189C11.128 35.378 10.9933 35.3273 10.202 35.3273C9.42762 35.3273 9.10775 35.4625 7.18856 36.6119Z" fill="#1C342C"/>
<path d="M58.7038 35.8005C58.3165 36.2061 58.2492 36.4259 58.2492 37.2034C58.2492 38.3697 58.4681 38.6063 61.1112 40.1276C63.4344 41.4798 64.091 41.5644 65.0674 40.7192C65.5893 40.2459 65.6566 40.1107 65.6566 39.3332C65.6566 38.5725 65.5893 38.4204 65.0169 37.8795C64.6633 37.5415 63.5859 36.8315 62.6263 36.2906C61.1448 35.4624 60.7745 35.3272 60.0169 35.3272C59.293 35.3272 59.091 35.3948 58.7038 35.8005Z" fill="#1C342C"/>
</svg>
