<svg width="16" height="16" viewBox="0 0 16 16" fill="none" xmlns="http://www.w3.org/2000/svg">
<path d="M1.38425 15.3329C1.30671 15.3226 1.11963 15.2497 1.00183 15.1839C0.953605 15.1569 0.854127 15.0709 0.780763 14.9928C0.663117 14.8675 0.626003 14.8093 0.52365 14.5901C0.506308 14.553 0.5 12.7525 0.5 7.84019V1.14091L0.551082 1.01435C0.667513 0.725875 0.861328 0.528052 1.16148 0.391325L1.27557 0.339355H7.98286H14.6901L14.8693 0.42716C15.1832 0.580991 15.3974 0.85521 15.4706 1.19684C15.4944 1.30813 15.4994 2.42719 15.5 7.82125C15.5005 12.3262 15.4939 14.3459 15.4783 14.4235C15.427 14.6795 15.3531 14.82 15.1745 15.0013C15.0171 15.161 14.9492 15.2068 14.7518 15.2865L14.627 15.3369L8.0372 15.3391C4.41282 15.3403 1.41899 15.3375 1.38425 15.3329ZM4.94764 9.53086L4.95296 5.93969H3.82653H2.7001V9.53632V13.133L3.82121 13.1275L4.94232 13.122L4.94764 9.53086ZM8.55343 11.25C8.55376 9.76345 8.56017 9.3097 8.58391 9.09317C8.64001 8.5813 8.74541 8.29934 8.96309 8.07879C9.20343 7.83529 9.43299 7.75373 9.87803 7.75373C10.1138 7.75373 10.1694 7.76081 10.3139 7.80916C10.5345 7.88305 10.6149 7.94027 10.7546 8.12287C10.8629 8.26445 10.9253 8.42603 10.9868 8.72403C11.0202 8.88633 11.0245 9.10381 11.032 11.0181L11.0402 13.133L12.1599 13.1275L13.2796 13.122V10.9916C13.2796 9.44932 13.2719 8.75121 13.2519 8.46295C13.1883 7.54589 12.9957 6.97231 12.5862 6.48007C12.4126 6.27135 12.0389 6.03097 11.7216 5.92385C11.3231 5.78934 10.7672 5.72541 10.3687 5.76824C10.1179 5.79519 10.0684 5.80501 9.80571 5.87993C9.49582 5.96832 9.07723 6.21592 8.82671 6.45901C8.7746 6.50957 8.67986 6.63107 8.61618 6.729C8.55249 6.82693 8.49327 6.90772 8.48459 6.90852C8.4759 6.90933 8.4688 6.69167 8.4688 6.42484V5.93969H7.39506H6.32133V9.53614V13.1326H7.43717H8.55301L8.55343 11.25ZM4.15281 4.92645C4.40697 4.84429 4.55524 4.75609 4.72743 4.58462C4.85885 4.45374 4.90759 4.38657 4.97233 4.24707C5.08296 4.00867 5.10703 3.88375 5.09558 3.60754C5.08574 3.37048 5.06204 3.27562 4.95648 3.05094C4.87741 2.88265 4.60372 2.6122 4.4265 2.52725C4.16527 2.40202 4.09978 2.38697 3.81595 2.38697C3.54419 2.38697 3.47991 2.40036 3.25038 2.50479C2.86462 2.6803 2.60725 3.03975 2.53114 3.50929C2.47031 3.88461 2.61426 4.29647 2.90907 4.5906C3.10802 4.78909 3.3311 4.90299 3.62646 4.95691C3.71357 4.97281 4.07388 4.95195 4.15281 4.92645Z" fill="#F5F2EB"/>
</svg>
