<svg width="71" height="71" viewBox="0 0 71 71" fill="#1C342C" xmlns="http://www.w3.org/2000/svg">
<path d="M36.2626 0.23645C34.4613 0.828053 32.7778 2.75499 32.5757 4.47909C32.4242 5.62849 32.6936 6.91312 33.2828 7.79207L33.7205 8.46819L25.9091 16.3281L18.0808 24.1879L17.037 23.647C16.1448 23.1737 15.8249 23.1061 14.7811 23.1061C13.2491 23.1061 12.3232 23.4949 11.2289 24.5936C10.0337 25.7937 9.69696 26.5374 9.69696 28.0587C9.68012 30.3237 9.52861 30.1378 17.8956 38.4878L25.3367 45.9082L26.4141 46.2125C28.266 46.7365 29.7811 46.3477 31.2121 44.9955C32.3906 43.8968 32.8283 42.8826 32.8283 41.2599C32.8283 40.0936 32.7609 39.8062 32.3232 38.9442L31.8013 37.9638L33.9057 35.851L35.9933 33.755L49.2761 47.0576C57.4411 55.2555 62.7946 60.5124 63.2155 60.7152C64.1414 61.2054 65.7071 61.2899 66.9023 60.9518C67.6936 60.7152 68.0976 60.4616 68.9394 59.6165C69.8316 58.7375 70.0505 58.3995 70.2862 57.5712C70.6397 56.3711 70.5555 55.1372 70.0505 53.9878C69.7643 53.3624 67.9293 51.4355 61.2289 44.7081C56.5825 40.026 50.6229 34.0254 47.9798 31.3717L43.1818 26.5374L45.2862 24.4246L47.3906 22.3286L48.468 22.8695C49.9158 23.5794 51.4983 23.6132 52.7778 22.954C55.3704 21.5849 56.4646 18.7114 55.303 16.2943C54.899 15.4491 53.771 14.2321 47.6599 8.07942C42.037 2.41693 40.3199 0.777344 39.697 0.506897C38.6869 0.067421 37.1549 -0.0678024 36.2626 0.23645ZM45.3199 10.2599C50.1852 15.1448 52.4074 17.4775 52.5421 17.8662C52.6768 18.3057 52.6599 18.5254 52.4411 18.9987C52.0202 19.8946 51.5825 20.1988 50.7239 20.1988H49.9832L42.8283 12.9982C36.7172 6.8286 35.6902 5.72991 35.6902 5.30733C35.6902 4.34387 36.8182 3.21137 37.7778 3.21137C38.2155 3.21137 39.2424 4.17484 45.3199 10.2599ZM40.7407 15.466L45.1852 19.9622L41.9192 23.2414C40.1178 25.05 38.569 26.5374 38.468 26.5374C38.2491 26.5374 29.4613 17.7141 29.4613 17.4944C29.4613 17.2239 35.7576 10.9867 36.0269 10.9867C36.1784 10.9867 38.2996 12.9982 40.7407 15.466ZM32.8283 32.3689L29.4613 35.7495L24.8821 31.1519L20.2862 26.5374L23.6532 23.1568L27.0202 19.7763L31.5993 24.3739L36.1953 28.9884L32.8283 32.3689ZM16.1953 27.1121C18.3838 29.0053 29.6128 40.5162 29.7306 40.9895C29.9663 41.9529 28.8047 43.2713 27.7104 43.2713C27.1717 43.2713 26.1953 42.3417 18.3502 34.3973C12.9124 28.8869 12.7946 28.7686 12.7946 28.2615C12.7946 27.3319 13.872 26.1994 14.7643 26.1994C14.9663 26.1994 15.606 26.605 16.1953 27.1121ZM51.9528 39.9415C67.6094 55.7626 67.34 55.4753 67.34 56.1176C67.34 56.9458 66.2626 57.9769 65.404 57.9769C64.8148 57.9769 64.6128 57.8248 63.0135 56.2359C61.4815 54.7485 38.6027 31.7435 38.4007 31.5238C38.3165 31.4224 40.7407 28.9038 40.9259 28.9038C40.9764 28.9038 45.9427 33.8733 51.9528 39.9415Z" fill="#1C342C"/>
<path d="M8.7037 55.0021C6.32997 55.8472 4.42761 57.8587 3.7037 60.2927L3.48485 61.0195H2.3064C1.21212 61.0195 1.11111 61.0533 0.572391 61.5942L0 62.1689V65.6002C0 67.4934 0.0841751 69.3358 0.185185 69.6738C0.521886 70.9078 -0.942761 70.8232 21.3805 70.8232H41.4478L41.9024 70.35C42.5253 69.7245 42.6599 68.4568 42.5084 64.772C42.3906 62.2365 42.3569 61.9661 42.0034 61.5604C41.6667 61.1717 41.4646 61.104 40.3535 61.0533C39.1751 60.9857 39.0741 60.9519 38.9899 60.5801C38.7879 59.7856 37.8451 57.9939 37.2559 57.3009C36.4478 56.3712 34.9495 55.3739 33.7037 54.9514C32.6936 54.6133 32.3401 54.5964 21.2626 54.5964H9.84848L8.7037 55.0021ZM32.9293 58.0615C33.2492 58.1967 33.8384 58.5686 34.2256 58.8898C34.9663 59.4983 35.7744 60.7153 35.5724 60.9181C35.3872 61.104 6.90236 61.0364 6.90236 60.8505C6.90236 60.242 8.26599 58.7545 9.3266 58.1967C10.2357 57.7235 11.5993 57.6727 22.1044 57.7404C30.5556 57.808 32.4411 57.8587 32.9293 58.0615ZM39.2256 65.9214V67.6117H21.2121H3.19865V66.6989C3.19865 66.2087 3.24916 65.4481 3.29966 65.0086L3.41751 64.2311H21.3131H39.2256V65.9214Z" fill="#1C342C"/>
</svg>
