<svg width="72" height="72" viewBox="0 0 72 72" fill="#1C342C" xmlns="http://www.w3.org/2000/svg">
<path d="M10.499 0.957287C10.6876 0.956761 10.8762 0.956236 11.0705 0.955695C11.6997 0.954357 12.3289 0.955414 12.9582 0.956475C13.4104 0.956019 13.8626 0.955431 14.3148 0.954687C15.414 0.953193 16.5131 0.953512 17.6123 0.954489C18.5059 0.955251 19.3996 0.955352 20.2932 0.954986C20.4843 0.954909 20.4843 0.954909 20.6792 0.95483C20.938 0.954722 21.1968 0.954613 21.4556 0.954502C23.8801 0.953543 26.3046 0.954645 28.7291 0.956455C30.8076 0.95796 32.8861 0.957698 34.9647 0.956146C37.3807 0.954343 39.7968 0.953636 42.2129 0.954669C42.4707 0.954776 42.7285 0.954882 42.9863 0.954986C43.1132 0.955038 43.24 0.95509 43.3707 0.955144C44.2629 0.955434 45.155 0.954945 46.0471 0.954151C47.135 0.953205 48.2228 0.953466 49.3106 0.955256C49.8652 0.956139 50.4198 0.956309 50.9743 0.955374C51.5764 0.954453 52.1785 0.95561 52.7805 0.957287C52.9546 0.956536 53.1286 0.955785 53.3079 0.955011C55.7474 0.96817 57.8965 1.78571 59.7108 3.44441C59.9226 3.69364 59.9226 3.69364 59.9226 4.03034C60.0337 4.03034 60.1448 4.03034 60.2593 4.03034C61.8294 5.88757 62.333 8.15549 62.32 10.5209C62.3204 10.8103 62.3204 10.8103 62.3209 11.1056C62.3214 11.7505 62.3196 12.3954 62.3177 13.0404C62.3174 13.5033 62.3177 13.9663 62.3179 14.4292C62.318 15.4251 62.317 16.4209 62.3151 17.4168C62.3124 18.8566 62.3115 20.2965 62.3111 21.7363C62.3103 24.0725 62.3081 26.4088 62.3049 28.745C62.3018 31.014 62.2994 33.2829 62.298 35.5519C62.2979 35.6918 62.2978 35.8317 62.2977 35.9759C62.2973 36.678 62.2969 37.3801 62.2964 38.0822C62.293 43.9033 62.2867 49.7244 62.2795 55.5455C65.1684 55.5455 68.0573 55.5455 71.0337 55.5455C71.2263 55.9307 71.2234 56.1456 71.2238 56.5737C71.2244 56.7165 71.2249 56.8594 71.2254 57.0065C71.2249 57.239 71.2249 57.239 71.2244 57.4763C71.2247 57.7162 71.2247 57.7162 71.2249 57.9609C71.225 58.3006 71.2247 58.6403 71.224 58.9799C71.2231 59.4949 71.224 60.0099 71.2251 60.525C71.225 60.8555 71.2247 61.1861 71.2244 61.5167C71.2248 61.6689 71.2251 61.8212 71.2254 61.9781C71.2204 63.3708 71.2142 64.7381 70.6339 66.0253C70.559 66.1937 70.4841 66.3621 70.407 66.5356C70.1748 67.0298 69.9417 67.5205 69.6869 68.0034C69.5758 68.0034 69.4647 68.0034 69.3502 68.0034C69.3068 68.1015 69.2634 68.1996 69.2187 68.3007C68.9969 68.7072 68.7524 68.9828 68.4243 69.3081C68.3218 69.4114 68.2194 69.5147 68.1139 69.6211C67.8351 69.8553 67.8351 69.8553 67.4984 69.8553C67.4984 69.9664 67.4984 70.0775 67.4984 70.192C67.1344 70.3831 66.7696 70.5721 66.4041 70.7601C66.3029 70.8135 66.2018 70.8669 66.0976 70.9219C65.9956 70.974 65.8936 71.0261 65.7885 71.0797C65.6969 71.1273 65.6052 71.175 65.5107 71.224C64.3654 71.6781 63.2986 71.7562 62.0816 71.7521C61.9135 71.7529 61.7455 71.7537 61.5724 71.7544C61.0117 71.7566 60.451 71.7563 59.8902 71.756C59.4872 71.757 59.0842 71.7582 58.6812 71.7594C57.7014 71.7621 56.7217 71.7632 55.7419 71.7634C54.9448 71.7635 54.1477 71.7642 53.3506 71.7653C51.0872 71.7682 48.8239 71.7698 46.5605 71.7695C46.4386 71.7695 46.3167 71.7695 46.1912 71.7695C46.0691 71.7695 45.9471 71.7695 45.8214 71.7695C43.8455 71.7693 41.8695 71.7725 39.8936 71.7773C37.8612 71.7821 35.8288 71.7845 33.7965 71.7842C32.6569 71.784 31.5173 71.785 30.3776 71.7886C29.3052 71.7919 28.2328 71.7919 27.1604 71.7894C26.7679 71.7891 26.3755 71.7899 25.983 71.7919C23.5174 71.8039 21.379 71.7396 19.2134 70.4234C19.0457 70.324 18.8779 70.2247 18.7051 70.1223C18.5846 70.0341 18.4642 69.946 18.3401 69.8553C18.3401 69.7441 18.3401 69.633 18.3401 69.5186C18.2424 69.4778 18.1448 69.437 18.0442 69.3949C16.576 68.5662 15.8182 66.6702 15.3098 65.1415C15.117 64.1125 15.1183 63.1019 15.1212 62.0573C15.1211 61.8666 15.1209 61.6758 15.1208 61.4793C15.1205 60.8408 15.1214 60.2024 15.1223 59.5639C15.1225 59.106 15.1224 58.648 15.1223 58.1901C15.1222 57.2045 15.1227 56.2189 15.1237 55.2333C15.125 53.8084 15.1255 52.3834 15.1257 50.9584C15.126 48.6464 15.1272 46.3343 15.1287 44.0223C15.1303 41.7767 15.1315 39.5311 15.1322 37.2855C15.1322 37.147 15.1323 37.0085 15.1323 36.8658C15.1326 36.1711 15.1328 35.4764 15.133 34.7816C15.1347 29.0205 15.1377 23.2594 15.1414 17.4984C14.9668 17.4987 14.7921 17.4991 14.6121 17.4995C12.9696 17.5029 11.3271 17.5054 9.68459 17.5071C8.84007 17.508 7.99554 17.5092 7.15102 17.5111C6.33672 17.5129 5.52242 17.5139 4.70811 17.5143C4.39672 17.5146 4.08533 17.5153 3.77394 17.5162C3.33935 17.5174 2.90477 17.5175 2.47018 17.5175C2.34013 17.5181 2.21007 17.5187 2.07608 17.5193C1.18759 17.5176 1.18759 17.5176 1.00003 17.33C0.982949 16.821 0.976524 16.316 0.977676 15.807C0.977515 15.6517 0.977354 15.4965 0.977188 15.3365C0.977073 15.0059 0.977386 14.6753 0.978087 14.3447C0.978975 13.8459 0.978103 13.3471 0.977018 12.8483C0.974327 7.1251 0.974326 7.1251 2.51519 4.70375C2.6263 4.70375 2.73741 4.70375 2.85189 4.70375C2.91699 4.55661 2.91699 4.55661 2.98341 4.4065C3.20514 3.99999 3.44968 3.72439 3.77781 3.39903C3.93146 3.24408 3.93146 3.24408 4.08821 3.08601C4.36704 2.85189 4.36704 2.85189 4.70374 2.85189C4.70374 2.74078 4.70374 2.62967 4.70374 2.51519C5.06395 2.32356 5.42522 2.13466 5.78749 1.94701C5.88721 1.89363 5.98693 1.84024 6.08967 1.78524C7.5157 1.05316 8.91573 0.950454 10.499 0.957287ZM17.1617 4.8721C17.2214 4.98508 17.2811 5.09806 17.3426 5.21447C18.2526 6.93601 18.5838 8.42286 18.5744 10.3678C18.5759 10.6809 18.5759 10.6809 18.5775 11.0003C18.5797 11.5754 18.5798 12.1505 18.5788 12.7256C18.5784 13.3476 18.5808 13.9697 18.583 14.5917C18.5862 15.6691 18.5877 16.7464 18.5879 17.8237C18.5882 19.3861 18.5915 20.9485 18.5955 22.5108C18.602 25.0523 18.6063 27.5938 18.6092 30.1353C18.612 32.5925 18.6154 35.0497 18.6199 37.5069C18.6202 37.6578 18.6205 37.8088 18.6208 37.9643C18.6238 39.6175 18.6271 41.2706 18.6306 42.9238C18.6309 43.0697 18.6312 43.2157 18.6315 43.366C18.6328 43.9501 18.634 44.5341 18.6353 45.1182C18.639 46.8181 18.642 48.5181 18.6437 50.218C18.6448 51.2875 18.6464 52.3569 18.6484 53.4263C18.6495 54.0406 18.6504 54.6549 18.6505 55.2691C18.6509 56.7643 18.6584 58.2592 18.6768 59.7542C18.6791 59.9599 18.6814 60.1655 18.6837 60.3774C18.6921 60.9761 18.7054 61.5745 18.7206 62.173C18.7228 62.3492 18.7251 62.5253 18.7274 62.7068C18.7783 64.2957 19.2626 65.5266 20.3531 66.6915C21.4194 67.6273 22.6549 68.0408 24.064 68.0034C25.5142 67.876 26.8112 67.3607 27.8203 66.2883C30.0651 63.4137 29.1145 58.5857 29.1145 55.5455C38.7256 55.5455 48.3367 55.5455 58.2391 55.5455C58.3399 51.2093 58.4346 46.8849 58.4304 42.5493C58.4298 41.8103 58.4299 41.0713 58.4301 40.3323C58.4306 38.9119 58.4303 37.4916 58.4294 36.0712C58.4286 34.8003 58.4286 33.5295 58.4294 32.2586C58.4317 28.4426 58.4278 24.6266 58.4124 20.8106C58.4089 19.9549 58.4063 19.0991 58.4044 18.2433C58.4013 16.9129 58.3953 15.5825 58.3834 14.2521C58.3781 13.6496 58.374 13.0472 58.3734 12.4447C58.3727 11.7923 58.3654 11.1402 58.3574 10.4879C58.3581 10.3 58.3588 10.1122 58.3596 9.91867C58.3366 8.66959 58.0477 7.79037 57.3973 6.72395C57.2862 6.72395 57.1751 6.72395 57.0606 6.72395C57.0294 6.6302 56.9981 6.53645 56.9659 6.43986C56.4153 5.5541 55.5113 5.14799 54.5354 4.8721C54.0393 4.82039 53.558 4.78625 53.0606 4.76827C52.8245 4.75878 52.8245 4.75878 52.5836 4.74909C49.8208 4.65386 47.0538 4.67928 44.2898 4.68113C43.44 4.68156 42.5902 4.68116 41.7403 4.6809C40.3155 4.68059 38.8906 4.68099 37.4657 4.6818C35.8252 4.68272 34.1848 4.68242 32.5443 4.68149C31.1268 4.68072 29.7093 4.68062 28.2917 4.68106C27.449 4.68132 26.6063 4.68136 25.7636 4.6808C24.9717 4.68031 24.1799 4.68066 23.3881 4.68162C23.0998 4.68184 22.8116 4.68179 22.5233 4.68141C20.7292 4.67929 18.9509 4.73784 17.1617 4.8721ZM5.79801 6.57664C4.11284 8.92385 4.53539 10.8459 4.53539 13.7947C7.97983 13.7947 11.4243 13.7947 14.9731 13.7947C15.2051 9.78781 15.2051 9.78781 13.6197 6.37738C12.5589 5.32712 11.3077 4.82903 9.81738 4.78792C8.18474 4.8172 6.94136 5.41853 5.79801 6.57664ZM32.9866 59.4175C32.931 60.8064 32.8755 62.1953 32.8182 63.6263C32.5147 65.0604 32.159 66.2215 31.4714 67.4984C31.4714 67.665 31.4714 67.8317 31.4714 68.0034C35.5441 68.0191 39.6168 68.031 43.6895 68.0383C45.5806 68.0418 47.4717 68.0465 49.3629 68.0542C51.0116 68.0609 52.6603 68.0653 54.3091 68.0668C55.1817 68.0676 56.0543 68.0697 56.9269 68.0746C57.7492 68.0792 58.5714 68.0806 59.3938 68.0796C59.6946 68.0798 59.9954 68.0811 60.2963 68.0837C62.3096 68.1002 64.1905 68.0165 65.8148 66.6566C67.7717 64.5841 67.33 62.1913 67.33 59.4175C55.9967 59.4175 44.6633 59.4175 32.9866 59.4175Z" fill="#1C342C"/>
<path d="M28.7778 46.6228C35.5 46.6228 42.2222 46.6228 49.1482 46.6228C49.1482 47.845 49.1482 49.0672 49.1482 50.3265C42.426 50.3265 35.7037 50.3265 28.7778 50.3265C28.7778 49.1043 28.7778 47.8821 28.7778 46.6228Z" fill="#1C342C"/>
<path d="M28.7778 29.4512C35.5 29.4512 42.2222 29.4512 49.1482 29.4512C49.1482 30.6734 49.1482 31.8956 49.1482 33.1549C42.426 33.1549 35.7037 33.1549 28.7778 33.1549C28.7778 31.9327 28.7778 30.7104 28.7778 29.4512Z" fill="#1C342C"/>
<path d="M29.2824 12.2588C29.4312 12.2589 29.58 12.2591 29.7333 12.2592C29.9036 12.259 30.0738 12.2588 30.2491 12.2585C30.5316 12.2595 30.5316 12.2595 30.8197 12.2604C31.0168 12.2604 31.2139 12.2603 31.4169 12.2603C31.9588 12.2604 32.5007 12.2612 33.0426 12.2624C33.6084 12.2635 34.1741 12.2636 34.7399 12.2638C35.8119 12.2643 36.8839 12.2657 37.9559 12.2674C39.1761 12.2692 40.3962 12.2702 41.6164 12.271C44.127 12.2728 46.6376 12.2759 49.1482 12.2795C49.1482 13.5017 49.1482 14.7239 49.1482 15.9832C42.426 15.9832 35.7037 15.9832 28.7778 15.9832C28.7778 12.2899 28.7778 12.2899 29.2824 12.2588Z" fill="#1C342C"/>
<path d="M29.9155 20.8515C30.1691 20.8533 30.1691 20.8533 30.4278 20.8551C30.6139 20.8573 30.8 20.8594 30.9918 20.8617C31.1872 20.8633 31.3827 20.8649 31.584 20.8666C32.2326 20.8722 32.8812 20.8789 33.5297 20.8857C33.9784 20.8898 34.4271 20.8938 34.8758 20.8978C35.9377 20.9072 36.9995 20.9176 38.0614 20.9282C39.2702 20.9403 40.4789 20.9514 41.6877 20.9624C44.1745 20.9851 46.6614 21.009 49.1482 21.0337C49.1482 22.2004 49.1482 23.367 49.1482 24.569C42.426 24.569 35.7037 24.569 28.7778 24.569C28.7778 23.4024 28.7778 22.2357 28.7778 21.0337C29.1914 20.8269 29.4532 20.8471 29.9155 20.8515Z" fill="#1C342C"/>
<path d="M28.7778 38.0371C35.5 38.0371 42.2222 38.0371 49.1482 38.0371C49.1482 39.2038 49.1482 40.3704 49.1482 41.5725C42.426 41.5725 35.7037 41.5725 28.7778 41.5725C28.7778 40.4058 28.7778 39.2391 28.7778 38.0371Z" fill="#1C342C"/>
<path d="M67.33 60.2593C67.3855 60.2593 67.4411 60.2593 67.4983 60.2593C67.5539 61.2037 67.6095 62.1482 67.6667 63.1212C67.8334 63.1768 68 63.2323 68.1717 63.2896C68.1717 63.5118 68.1717 63.734 68.1717 63.963C68.0207 64.0203 68.0207 64.0203 67.8666 64.0787C67.4035 64.3566 67.2416 64.6696 66.9933 65.1414C66.7646 64.6841 66.93 64.454 67.074 63.9872C67.2426 63.2927 67.2423 62.5808 67.2669 61.8691C67.2734 61.7139 67.2799 61.5586 67.2866 61.3986C67.3023 61.0189 67.3168 60.6391 67.33 60.2593Z" fill="#1C342C"/>
<path d="M3.02022 4.19873C3.23189 4.83375 3.19423 5.25142 3.02022 5.88223C2.22055 6.07163 2.22055 6.07163 1.84177 5.88223C2.06399 5.49334 2.28621 5.10445 2.51517 4.70378C2.62628 4.70378 2.73739 4.70378 2.85187 4.70378C2.90742 4.53711 2.96298 4.37045 3.02022 4.19873Z" fill="#1C342C"/>
<path d="M8.23909 1.16846C8.12798 1.39068 8.01687 1.6129 7.90239 1.84186C7.22899 1.84186 7.22899 1.84186 6.72394 1.50516C7.29144 1.25293 7.6001 1.16846 8.23909 1.16846Z" fill="#1C342C"/>
<path d="M12.2795 5.3772C12.6128 5.3772 12.9462 5.3772 13.2896 5.3772C13.4007 5.76609 13.5118 6.15498 13.6263 6.55565C13.5152 6.50009 13.4041 6.44454 13.2896 6.3873C13.2896 6.27619 13.2896 6.16508 13.2896 6.0506C13.1542 6.00199 13.0188 5.95338 12.8792 5.90329C12.4478 5.7139 12.4478 5.7139 12.2795 5.3772Z" fill="#1C342C"/>
<path d="M59.9226 4.03027C60.0337 4.03027 60.1448 4.03027 60.2593 4.03027C60.426 4.36361 60.5926 4.69694 60.7643 5.04037C60.6532 5.04037 60.5421 5.04037 60.4276 5.04037C60.4276 4.92926 60.4276 4.81815 60.4276 4.70367C60.261 4.75923 60.0943 4.81479 59.9226 4.87202C59.8115 4.76091 59.7004 4.6498 59.5859 4.53532C59.697 4.53532 59.8081 4.53532 59.9226 4.53532C59.9226 4.36866 59.9226 4.20199 59.9226 4.03027Z" fill="#1C342C"/>
</svg>
