<svg width="58" height="71" viewBox="0 0 58 71" fill="#1C342C" xmlns="http://www.w3.org/2000/svg">
<path d="M25.6638 0.0568161C24.9858 0.113571 24.3191 0.471146 23.6695 1.12387C23.1624 1.62902 22.9231 2.00362 22.3989 3.12176C22.1823 3.58718 22 3.72907 21.2251 4.02989C21.1624 4.0526 20.8034 4.19449 20.4274 4.34206C18.1311 5.2502 16.1425 6.73159 14.5185 8.74651C14.1311 9.22895 13.4473 10.1882 13.4473 10.2506C13.4473 10.262 13.3846 10.3698 13.3162 10.489C12.9744 11.0282 12.49 11.9704 12.2792 12.4869C12.1653 12.7707 12.0285 13.0885 11.9601 13.2361C11.9316 13.2928 11.9088 13.3723 11.9088 13.4234C11.9088 13.4688 11.8405 13.7072 11.755 13.9456C11.6068 14.394 11.5898 14.4507 11.4302 15.3248C11.3333 15.864 11.1282 16.8346 11.0769 16.9821C11.0598 17.0389 10.8889 17.1751 10.6952 17.2886C9.58405 17.93 9.05414 18.5146 8.64388 19.5533C8.34189 20.3195 8.3248 21.432 8.604 22.2209C8.67237 22.4082 8.74075 22.6126 8.75784 22.675C8.80343 22.8226 9.21368 23.4866 9.37323 23.6683C9.4416 23.7477 9.53847 23.8839 9.59545 23.9691C9.69232 24.128 9.69232 24.1393 9.53847 24.4402C9.453 24.6104 9.35044 24.775 9.30485 24.8091C9.26497 24.8488 9.23078 24.8942 9.23078 24.9226C9.23078 24.9453 9.13961 25.1156 9.03135 25.2972C8.92309 25.4788 8.74645 25.8818 8.64958 26.194C8.46725 26.7446 8.46155 26.79 8.46155 27.7265C8.46155 28.6743 8.47864 28.7992 8.70086 29.5711C8.84331 30.0536 8.93448 30.2409 9.28206 30.7574C9.65243 31.3136 10.4331 32.1196 10.8832 32.4147C11.4416 32.7836 12.3134 33.0788 13.1054 33.1753C13.4815 33.2207 14.245 33.3682 14.3134 33.408C14.4046 33.4647 14.6382 33.9245 14.7578 34.2821C14.8262 34.4864 14.9003 34.7021 14.9288 34.7645C14.9573 34.8269 14.9972 34.9404 15.02 35.0199C15.0598 35.1618 15.4473 36.0359 15.5613 36.2289C15.5898 36.2856 15.6695 36.4275 15.7322 36.541C15.7949 36.6545 15.8974 36.8248 15.9544 36.9213C16.0114 37.0121 16.1197 37.1994 16.188 37.33C16.2621 37.4662 16.3362 37.574 16.359 37.574C16.3761 37.574 16.4103 37.6194 16.4331 37.6705C16.4729 37.8011 16.5356 37.8919 17.0029 38.5389C17.4815 39.1916 17.567 39.2938 18.3761 40.1565C18.7237 40.5311 19.094 40.9284 19.1909 41.042L19.3675 41.2406L19.3789 42.8015C19.3846 43.6585 19.3732 44.4475 19.3504 44.561C19.3106 44.7596 19.2935 44.771 18.9858 44.8334C18.792 44.8731 17.9772 44.8958 16.8946 44.8958C15.0883 44.8958 13.2251 44.9696 12.7635 45.0604C12.6211 45.0888 12.3419 45.1456 12.1368 45.1796C11.1111 45.3669 9.52707 45.9232 8.56981 46.4283C6.52423 47.5067 4.8718 48.8462 3.52138 50.5263C3.11112 51.0371 2.50713 51.8941 2.50713 51.9623C2.50713 51.985 2.43306 52.1041 2.34759 52.2347C1.88605 52.9101 1.25357 54.2212 0.85471 55.3223C0.358983 56.7186 0.131063 57.9332 0.0569888 59.653C-0.00568922 61.0606 -0.0113872 67.8886 0.0512908 68.8308C0.102573 69.6481 0.239325 69.8979 0.79773 70.2044L1.1681 70.4087H28.9459C56.1482 70.4087 56.7294 70.4087 56.9516 70.3009C57.2308 70.1703 57.4074 69.9773 57.567 69.6425C57.6866 69.3927 57.6866 69.2962 57.7265 65.0734C57.7607 61.7587 57.7493 60.3965 57.6923 59.1989C57.6125 57.5529 57.5955 57.4338 57.265 56.2759C57.2365 56.1794 57.2023 56.0148 57.1795 55.907C57.1624 55.7991 57.1225 55.6572 57.094 55.5948C56.9687 55.311 56.8661 55.0329 56.8661 54.9648C56.8661 54.8512 56.1994 53.4493 55.7664 52.6434C55.4815 52.1212 54.8547 51.1506 54.661 50.9406C54.604 50.8782 54.4672 50.7136 54.359 50.5717C53.8291 49.8906 52.8262 48.8519 51.9943 48.1311C51.3447 47.5692 49.4815 46.4226 48.661 46.0878C48.0855 45.8494 46.9573 45.4805 46.2393 45.2875C46.1482 45.2648 45.8918 45.2137 45.6695 45.1796C45.453 45.1456 45.1567 45.0945 45.0143 45.0661C44.5812 44.9753 42.5983 44.8958 40.9003 44.8958C39.9316 44.8958 39.151 44.8675 38.963 44.8334C38.6553 44.771 38.6439 44.7596 38.6097 44.561C38.5641 44.2942 38.5755 41.5074 38.6268 41.3144C38.6439 41.2293 38.9972 40.8093 39.4017 40.3836C40.3134 39.4244 40.1937 39.5492 40.5755 39.0781C40.8775 38.7092 41.5385 37.767 41.5385 37.7103C41.5385 37.6989 41.6012 37.5854 41.6809 37.4605C41.7607 37.3356 41.9031 37.0859 42 36.91C42.7408 35.5534 42.7408 35.5478 43.1168 34.4864C43.2251 34.1742 43.3732 33.8337 43.453 33.7201C43.5271 33.6066 43.5898 33.4874 43.5898 33.4534C43.5898 33.3796 44.1653 33.2434 44.9003 33.1469C45.8177 33.0277 46.4274 32.812 47.1054 32.3693C47.7835 31.9266 48.5356 31.132 48.9345 30.4282C49.4359 29.5541 49.6638 27.7946 49.4245 26.6424C49.3049 26.0691 49.0257 25.4278 48.6553 24.8602C48.5413 24.6899 48.416 24.4572 48.3761 24.3437C48.3077 24.1507 48.3134 24.1166 48.4615 23.8612C48.5527 23.708 48.6382 23.5718 48.6553 23.5547C48.7066 23.515 49.0598 22.9872 49.0598 22.9588C49.0598 22.9474 49.1225 22.7999 49.1966 22.6353C49.51 21.9485 49.6068 20.8474 49.4302 20.0528C49.265 19.3433 48.8205 18.5827 48.2678 18.0605C48.1254 17.9243 47.7664 17.6462 47.4701 17.4362C46.8547 16.9992 46.7635 16.8516 46.7009 16.1762C46.6667 15.7618 46.6268 15.5859 46.4673 15.0126C46.4217 14.8537 46.3419 14.5359 46.2906 14.3031C46.2336 14.0704 46.1767 13.8491 46.1539 13.8207C46.1311 13.7866 46.0741 13.6277 46.0171 13.4631C45.7835 12.7139 45.7322 12.572 45.6068 12.3336C45.5328 12.1974 45.4701 12.0612 45.4701 12.0328C45.4701 12.0044 45.396 11.8512 45.2992 11.6923C45.208 11.5333 45.1282 11.3801 45.1282 11.3574C45.1282 11.2722 44.3248 9.9214 44.1824 9.76815C44.1083 9.68869 44.0456 9.60355 44.0456 9.57518C44.0456 9.55247 44.0228 9.50139 43.9886 9.46166C43.9601 9.42193 43.7721 9.18922 43.5784 8.93948C42.4843 7.54323 41.3561 6.52158 39.8063 5.52264C39.208 5.13668 38.0399 4.53504 37.4644 4.31936C37.2764 4.24557 37.0712 4.16611 37.0086 4.13773C36.9459 4.11503 36.6667 3.99017 36.3818 3.87097C35.8405 3.63826 35.755 3.54745 35.4644 2.89473C34.9288 1.68578 34.3476 0.964943 33.5613 0.527908C33.3903 0.431419 33.151 0.300873 33.037 0.232765C32.8775 0.136276 32.6781 0.0908661 32.2678 0.0511398C31.6125 -0.00562286 26.3362 5.34058e-05 25.6638 0.0568161ZM32.2108 2.855C32.5413 3.04797 32.8319 3.42825 32.9972 3.888C33.1225 4.22287 33.1225 4.28531 33.1624 8.62731C33.2023 13.4631 33.1852 13.2588 33.5499 13.6391C34.1596 14.2861 35.2935 14.1442 35.6638 13.378C35.7721 13.1509 35.7835 13.0091 35.812 11.4879C35.8974 6.71456 35.9031 6.64077 36.0057 6.64077C36.245 6.64077 37.5385 7.24809 38.3134 7.73053C40.1254 8.84867 41.8405 10.7274 42.8604 12.7139C43.3903 13.7469 43.4872 13.9853 43.7778 15.041C43.8918 15.444 44.0456 16.3464 44.0456 16.5962V16.7892L43.6068 16.8346C43.02 16.897 15.1795 16.897 14.4559 16.8346L13.8917 16.7892L13.9316 16.4997C13.9544 16.3351 14.0342 15.9264 14.1083 15.5859C14.9003 12.0271 17.2992 8.91678 20.5185 7.26511C21.2023 6.91321 22.0057 6.57834 22.0513 6.61807C22.0684 6.6351 22.0912 8.08243 22.1083 9.83627C22.1368 12.9012 22.1425 13.0374 22.2564 13.2815C22.5071 13.8264 23.1396 14.1442 23.7208 14.0193C24.1197 13.9342 24.4046 13.7356 24.5983 13.412L24.7578 13.1396L24.7977 8.84299C24.8205 6.3059 24.8604 4.41585 24.8946 4.22855C25.0484 3.41122 25.5727 2.80959 26.2051 2.72445C26.3818 2.69608 27.7436 2.68472 29.2308 2.68472L31.9373 2.69608L32.2108 2.855ZM45.641 19.576C46.359 19.7179 46.7237 19.9563 46.9288 20.4274C47.0484 20.7111 47.0313 21.239 46.8889 21.5398C46.7407 21.852 46.3533 22.2039 46.057 22.2947C45.4587 22.4707 12.4217 22.4707 11.9373 22.289C11.6524 22.1869 11.2992 21.9201 11.1795 21.7271C10.9117 21.2844 10.9744 20.5522 11.3162 20.1606C11.6125 19.8144 12 19.6498 12.6781 19.5817C13.02 19.5476 14.7123 19.5419 16.8661 19.559C18.8547 19.576 21.4074 19.5646 22.5356 19.5306C25.02 19.4681 45.2764 19.5079 45.641 19.576ZM41.4416 25.2405C41.4587 25.3313 41.4986 25.4959 41.5271 25.6094C41.5613 25.7456 41.567 26.1599 41.5328 26.7446C41.5043 27.2554 41.4587 28.3054 41.4302 29.0887C41.3504 31.0582 41.1738 32.1196 40.6838 33.5158C40.4616 34.1515 39.8519 35.4172 39.5043 35.9848C38.7749 37.1597 37.6125 38.4822 36.5698 39.3279C35.1738 40.446 33.3846 41.3314 31.7379 41.7117C29.869 42.1431 27.9145 42.1317 26.1254 41.6833C23.1282 40.9341 20.5584 39.0725 18.7123 36.314C17.6296 34.7021 16.8205 32.4715 16.6382 30.6041C16.5755 29.923 16.4957 25.2348 16.547 25.1496C16.5755 25.1042 20.1539 25.0872 28.9972 25.0872H41.4131L41.4416 25.2405ZM13.812 25.354C13.9658 26.1883 13.9772 29.8606 13.8348 30.3998L13.7664 30.6438L13.339 30.6098C12.6895 30.5587 12.188 30.3146 11.6809 29.7925C11.3049 29.4122 11.208 29.2589 10.9915 28.7197C10.8661 28.4076 10.9003 27.4427 11.0541 26.9943C11.2308 26.4664 11.6068 25.9953 12.1653 25.6037C12.6553 25.2575 12.9402 25.161 13.4815 25.1496L13.7778 25.144L13.812 25.354ZM45.3846 25.3483C45.8519 25.5583 46.547 26.1543 46.7578 26.5232C47.0257 26.9886 47.037 27.0283 47.037 27.84C47.037 28.6743 47.0257 28.7027 46.718 29.2306C46.4672 29.6563 45.7949 30.2125 45.2422 30.4622C44.9858 30.5757 44.3305 30.6665 44.2393 30.5984C44.1425 30.5303 44.0342 30.1273 43.9886 29.6392C43.9145 28.89 44.0627 25.6094 44.1937 25.2064C44.2336 25.0815 45.0086 25.1723 45.3846 25.3483ZM23.0029 43.4542C24.2735 43.9991 25.4758 44.3623 26.6952 44.5837C27.396 44.7085 29.453 44.7596 30.4274 44.6745C31.7949 44.561 33.3447 44.1466 34.9516 43.4712C35.3846 43.2839 35.7721 43.1363 35.812 43.1363C35.9202 43.1363 35.9544 43.4769 35.9544 44.5837L35.9487 45.6053L34.5983 47.0016C33.8576 47.7678 32.302 49.3798 31.1453 50.5887C29.9943 51.7977 29.0257 52.7852 29.0029 52.7852C28.9459 52.7852 27.5214 51.3266 25.0427 48.727C23.8519 47.484 22.6952 46.2694 22.4672 46.031L22.057 45.6053L22.0513 44.4077C22.0513 43.7493 22.0684 43.1931 22.0912 43.1704C22.1539 43.1136 22.3191 43.1647 23.0029 43.4542ZM20.4331 47.8586C20.6154 48.0573 21.5157 48.9938 22.4274 49.9473C23.339 50.9009 24.8832 52.5185 25.8576 53.5401L27.6353 55.4018V61.5317V67.6559L22.0969 67.6446L16.5527 67.6275L16.5128 65.8737C16.4729 64.205 16.4672 64.1085 16.3419 63.8588C16.0969 63.365 15.4872 63.0698 14.9402 63.1663C14.547 63.2401 14.1823 63.5012 14.0228 63.8134C13.8974 64.0688 13.8861 64.1653 13.8405 65.6864C13.8177 66.5662 13.7949 67.3721 13.7892 67.4743V67.6559L12.4103 67.6446L11.0257 67.6275V57.9786V48.3297L11.3504 48.2049C11.8063 48.0232 12.9516 47.7338 13.3675 47.694C13.6296 47.6713 13.7265 47.6827 13.7664 47.7394C13.7949 47.7848 13.8291 49.7998 13.8462 52.2177L13.8747 56.6164L14.0342 56.8889C14.3248 57.3827 14.9003 57.6267 15.4758 57.5019C15.7094 57.4451 15.8519 57.3656 16.0741 57.1613C16.3248 56.94 16.3761 56.8548 16.416 56.6164C16.4445 56.4575 16.4786 54.3802 16.5014 51.9906C16.5185 49.6011 16.5413 47.6146 16.5527 47.5748C16.5698 47.5238 16.9801 47.5067 18.3362 47.5067H20.0969L20.4331 47.8586ZM41.4416 49.6465C41.4644 50.8214 41.4815 52.6263 41.4872 53.6593C41.4872 54.6923 41.51 55.8218 41.5328 56.168C41.567 56.7356 41.5898 56.8208 41.7265 57.0081C41.812 57.1159 42.0057 57.2805 42.1539 57.3656C42.6553 57.6608 43.3561 57.5529 43.7721 57.1159C44.1368 56.7356 44.1254 56.9229 44.1425 52.3312C44.1539 50.0381 44.1767 48.0516 44.1937 47.9154C44.2222 47.6884 44.2336 47.677 44.4217 47.677C44.9345 47.677 46.7578 48.1651 46.906 48.3411C47.0086 48.4659 47.0313 52.2347 46.9801 60.7711L46.9402 67.6559H45.5499H44.1596L44.1539 66.5889C44.1482 64.9088 44.0855 64.0177 43.9544 63.7907C43.453 62.9336 42.0969 62.9507 41.6581 63.8191C41.5328 64.0688 41.5214 64.171 41.4758 65.5445C41.453 66.3448 41.4302 67.1508 41.4302 67.3267L41.4245 67.6559H35.9088H30.3875L30.3533 66.1121C30.3305 65.2664 30.3134 62.5136 30.3134 59.9992L30.3191 55.4245L34.0912 51.4685L37.8633 47.5181L39.6353 47.5124L41.4074 47.5067L41.4416 49.6465ZM8.26212 58.7449V67.6559H5.50428H2.74645L2.70656 66.481C2.64958 64.8861 2.76354 59.3352 2.86611 58.6597C3.24787 56.2362 4.19374 54.0453 5.64673 52.246C6.41027 51.2982 7.97152 49.8338 8.21653 49.8338C8.24502 49.8338 8.26212 53.841 8.26212 58.7449ZM50.3989 50.2595C50.8889 50.6228 51.8804 51.6444 52.3248 52.2517C53.7607 54.2042 54.7066 56.3553 55.0143 58.3816C55.1624 59.3749 55.2194 61.1911 55.2023 64.4491L55.1852 67.6275L52.4729 67.6446L49.7607 67.6559L49.7265 67.3892C49.6752 66.9805 49.6638 50.1687 49.7151 49.9927C49.7664 49.8054 49.7949 49.8168 50.3989 50.2595Z" fill="#1C342C"/>
<path d="M14.5983 59.1479C13.812 59.5339 13.6011 60.5612 14.1709 61.1912C14.6553 61.7248 15.3903 61.8156 15.9487 61.4126C16.7521 60.828 16.6553 59.6134 15.7664 59.1707C15.3903 58.989 14.9459 58.9777 14.5983 59.1479Z" fill="#1C342C"/>
<path d="M42.2336 59.1478C41.4017 59.5565 41.2251 60.6576 41.886 61.2819C42.6154 61.9687 43.7892 61.6622 44.0798 60.703C44.188 60.3341 44.1368 60.0219 43.9088 59.6416C43.5726 59.0854 42.8205 58.8583 42.2336 59.1478Z" fill="#1C342C"/>
</svg>
