<svg width="16" height="16" viewBox="0 0 16 16" fill="none" xmlns="http://www.w3.org/2000/svg">
<path d="M0.610533 14.8207C0.737816 14.3506 0.956075 13.5559 1.20437 12.6584C1.50164 11.584 1.50689 11.535 1.35616 11.2421C0.992775 10.5361 0.739197 9.7547 0.59877 8.90833C0.508679 8.36533 0.517874 7.10405 0.615872 6.56252C0.801732 5.53546 1.1024 4.74011 1.63826 3.85804C2.13244 3.04456 2.96151 2.18941 3.80357 1.62461C5.20935 0.681692 7.09986 0.20412 8.75902 0.372784C10.5492 0.554764 12.1253 1.30853 13.3693 2.57765C14.7071 3.94246 15.4256 5.61298 15.4951 7.51999C15.5807 9.87032 14.5438 12.1323 12.7086 13.5988C12.2156 13.9928 11.9161 14.1834 11.3584 14.4579C10.2577 14.9997 9.27633 15.2235 7.99891 15.2242C6.8279 15.2248 5.92011 15.0287 4.83231 14.5402C4.66433 14.4648 4.4618 14.3973 4.38223 14.3903C4.2791 14.3812 4.0576 14.4246 3.61068 14.5413C2.62754 14.7981 2.41898 14.852 1.68178 15.0404C1.30163 15.1375 0.889621 15.2445 0.766205 15.2782C0.64279 15.3118 0.525682 15.3394 0.505965 15.3394C0.483887 15.3394 0.524059 15.1401 0.610533 14.8207ZM8.70637 13.9827C9.4722 13.8944 10.141 13.6983 10.8122 13.3651C12.9441 12.3067 14.2839 10.1701 14.2839 7.82886C14.2839 6.57112 13.9492 5.43649 13.2701 4.39224C12.5069 3.21867 11.3466 2.32396 10.0136 1.8811C8.5383 1.39102 6.99417 1.45833 5.50381 2.0777C4.45041 2.51547 3.42882 3.37338 2.76664 4.37629C2.33911 5.02381 2.01998 5.79942 1.84084 6.62635C1.75132 7.03957 1.71494 8.15438 1.77702 8.58184C1.88098 9.29765 2.07551 9.90556 2.41769 10.5839C2.55494 10.856 2.6861 11.1469 2.70917 11.2303C2.76767 11.442 2.73685 11.7947 2.6349 12.0801C2.55647 12.2997 2.37131 12.958 2.27474 13.3606C2.25158 13.4571 2.22225 13.5629 2.20957 13.5956C2.18063 13.6701 2.12061 13.6828 3.41429 13.3404C3.96934 13.1935 4.47169 13.0733 4.53064 13.0733C4.6003 13.0733 4.79958 13.1552 5.10005 13.3072C6.29967 13.9143 7.44255 14.1283 8.70637 13.9827ZM9.59198 11.3136C9.01918 11.2193 8.49158 11.0393 7.95508 10.7553C7.36176 10.4411 7.01793 10.204 6.47187 9.73267C5.49707 8.89122 4.4892 7.48274 4.28536 6.6771C4.10105 5.9486 4.30436 5.17501 4.81577 4.65886C4.98962 4.48341 5.07507 4.42179 5.18618 4.39177C5.34941 4.34767 5.81964 4.368 5.92446 4.42369C5.99252 4.45985 6.08701 4.62598 6.22428 4.95083C6.26877 5.05612 6.35871 5.26434 6.42414 5.41355C6.48957 5.56276 6.5843 5.80145 6.63465 5.94397C6.76383 6.30968 6.7314 6.40797 6.31499 6.9127C6.04775 7.2366 6.051 7.28715 6.36833 7.7434C6.7757 8.32909 7.28906 8.83556 7.82209 9.17764C8.10625 9.36 8.69592 9.65055 8.83409 9.67629C9.02264 9.7114 9.09178 9.67211 9.30081 9.41105C9.79653 8.79195 9.85768 8.73279 10.0019 8.73279C10.0371 8.73279 10.2519 8.82051 10.4791 8.92773C10.7063 9.03495 11.0441 9.19446 11.2298 9.2822C11.4155 9.36994 11.616 9.47808 11.6755 9.5225L11.7836 9.60328L11.7707 9.89523C11.7595 10.1509 11.7432 10.2179 11.6396 10.4344C11.3119 11.1195 10.5085 11.4645 9.59198 11.3136Z" fill="#F5F2EB"/>
</svg>
